<svg xmlns="http://www.w3.org/2000/svg" viewBox="0 0 523.44 282.09"><defs><style>.cls-1{fill:#cfdbee;}.cls-2{fill:#3a66ae;}.cls-3{fill:#2d65b5;}.cls-4{fill:#5d92d1;}.cls-5{fill:#cddcf1;}</style></defs><title>makeconnections0</title><g id="Layer_2" data-name="Layer 2"><g id="Layer_7" data-name="Layer 7"><path class="cls-1" d="M376.84,41.81a41.82,41.82,0,1,0-62.26,36.47v26.25h41.81V77.75A41.8,41.8,0,0,0,376.84,41.81Z"/><polygon class="cls-2" points="344.96 104.53 339.96 104.53 339.96 65.22 331.02 65.22 331.02 104.53 326.02 104.53 326.02 60.22 344.96 60.22 344.96 104.53"/><polygon class="cls-3" points="370.33 104.53 300.65 104.53 300.65 132.4 313.96 132.4 324.56 153.32 324.56 282.09 345.48 282.09 345.48 153.32 355.79 132.4 370.33 132.4 370.33 104.53"/><path class="cls-4" d="M523.44,41.81a41.81,41.81,0,1,0-62.25,36.47v26.25H503V77.75A41.8,41.8,0,0,0,523.44,41.81Z"/><polygon class="cls-2" points="491.56 104.53 486.56 104.53 486.56 65.22 477.63 65.22 477.63 104.53 472.63 104.53 472.63 60.22 491.56 60.22 491.56 104.53"/><polygon class="cls-3" points="516.94 104.53 447.25 104.53 447.25 132.4 460.57 132.4 471.17 153.32 471.17 282.09 492.09 282.09 492.09 153.32 502.4 132.4 516.94 132.4 516.94 104.53"/><path class="cls-4" d="M83.62,41.81A41.81,41.81,0,1,0,21.37,78.28v26.25H63.18V77.75A41.8,41.8,0,0,0,83.62,41.81Z"/><polygon class="cls-2" points="51.74 104.53 46.74 104.53 46.74 65.22 37.81 65.22 37.81 104.53 32.81 104.53 32.81 60.22 51.74 60.22 51.74 104.53"/><polygon class="cls-3" points="77.12 104.53 7.43 104.53 7.43 132.4 20.75 132.4 31.35 153.32 31.35 282.09 52.27 282.09 52.27 153.32 62.58 132.4 77.12 132.4 77.12 104.53"/><path class="cls-1" d="M230.23,41.81A41.81,41.81,0,1,0,168,78.28v26.25h41.81V77.75A41.8,41.8,0,0,0,230.23,41.81Z"/><polygon class="cls-2" points="198.35 104.53 193.35 104.53 193.35 65.22 184.41 65.22 184.41 104.53 179.41 104.53 179.41 60.22 198.35 60.22 198.35 104.53"/><polygon class="cls-3" points="223.72 104.53 154.04 104.53 154.04 132.4 167.35 132.4 177.96 153.32 177.96 282.09 198.88 282.09 198.88 153.32 209.19 132.4 223.72 132.4 223.72 104.53"/><polygon class="cls-5" points="245.92 37.32 229.76 21.17 232.59 18.34 245.92 31.67 262.32 15.27 278.11 31.06 290.85 18.31 293.68 21.14 278.11 36.71 262.32 20.92 245.92 37.32"/></g></g></svg>