<svg xmlns="http://www.w3.org/2000/svg" viewBox="0 0 842.35 604"><defs><style>.cls-1{opacity:0.2;}.cls-2{fill:#3a66ae;}.cls-3{fill:#5d92d1;}</style></defs><title>about0</title><g id="Layer_2" data-name="Layer 2"><g id="Illustration"><g class="cls-1"><polyline class="cls-2" points="242.35 2 422.36 2 422.36 62 242.35 62 242.35 122 302.36 122"/><polygon class="cls-3" points="302.35 124 240.35 124 240.35 60 420.35 60 420.35 4 242.35 4 242.35 0 424.35 0 424.35 64 244.35 64 244.35 120 302.35 120 302.35 124"/><polyline class="cls-2" points="422.36 122 542.36 122 542.36 242 122.36 242 122.36 302 362.36 302 362.36 362 242.35 362 242.35 482"/><polygon class="cls-3" points="244.35 482 240.35 482 240.35 360 360.35 360 360.35 304 120.35 304 120.35 240 540.35 240 540.35 124 422.35 124 422.35 120 544.35 120 544.35 244 124.35 244 124.35 300 364.35 300 364.35 364 244.35 364 244.35 482"/><polyline class="cls-2" points="482.36 62 602.36 62 602.36 2 482.36 2"/><polygon class="cls-3" points="604.35 64 482.35 64 482.35 60 600.35 60 600.35 4 482.35 4 482.35 0 604.35 0 604.35 64"/><polyline class="cls-2" points="122.36 482 122.36 602 482.36 602 482.36 482"/><polygon class="cls-3" points="484.35 604 120.35 604 120.35 482 124.35 482 124.35 600 480.35 600 480.35 482 484.35 482 484.35 604"/><polyline class="cls-2" points="662.36 2 662.36 62 782.36 62 782.36 302"/><polygon class="cls-3" points="784.35 302 780.35 302 780.35 64 660.35 64 660.35 2 664.35 2 664.35 60 784.35 60 784.35 302"/><polyline class="cls-2" points="602.36 482 602.36 362 842.36 362"/><polygon class="cls-3" points="604.35 482 600.35 482 600.35 360 842.35 360 842.35 364 604.35 364 604.35 482"/><polyline class="cls-2" points="2 602 62 602 62 482 2 482 2 422 122 422"/><polygon class="cls-3" points="64 604 2 604 2 600 60 600 60 484 0 484 0 420 122 420 122 424 4 424 4 480 64 480 64 604"/><polyline class="cls-2" points="122 362 62 362 62 242 2 242"/><polygon class="cls-3" points="122 364 60 364 60 244 2 244 2 240 64 240 64 360 122 360 122 364"/><polyline class="cls-2" points="2 122 2 182 62 182"/><polygon class="cls-3" points="62 184 0 184 0 122 4 122 4 180 62 180 62 184"/></g><line class="cls-2" x1="242.35" y1="182" x2="422.35" y2="182"/><rect class="cls-3" x="242.35" y="180" width="180" height="4"/><polygon class="cls-3" points="304.35 544 180.35 544 180.35 362 184.35 362 184.35 540 300.35 540 300.35 422 304.35 422 304.35 544"/><line class="cls-2" x1="422.35" y1="302" x2="422.35" y2="542"/><rect class="cls-3" x="420.35" y="302" width="4" height="240"/><circle class="cls-3" cx="362.35" cy="422" r="30"/><circle class="cls-3" cx="662.35" cy="542" r="30"/><circle class="cls-2" cx="482.35" cy="182" r="30"/><path class="cls-3" d="M482.35,214a32,32,0,1,1,32-32A32,32,0,0,1,482.35,214Zm0-60a28,28,0,1,0,28,28A28,28,0,0,0,482.35,154Z"/><circle class="cls-3" cx="632.35" cy="182" r="60"/><polygon class="cls-3" points="544.35 484 480.35 484 480.35 300 722.35 300 722.35 304 484.35 304 484.35 480 540.35 480 540.35 362 544.35 362 544.35 484"/><polygon class="cls-3" points="724.35 604 600.35 604 600.35 544 542.35 544 542.35 540 604.35 540 604.35 600 720.35 600 720.35 480 842.35 480 842.35 484 724.35 484 724.35 604"/><polygon class="cls-3" points="183.65 184 121.65 184 121.65 180 179.65 180 179.65 4 2 4 2 0 183.65 0 183.65 184"/><path class="cls-3" d="M91.21,33.22a60,60,0,1,0,60,60A60,60,0,0,0,91.21,33.22Zm.79,90a30,30,0,1,1,30-30A30,30,0,0,1,92,123.22Z"/><polygon class="cls-3" points="302.35 124 240.35 124 240.35 60 420.35 60 420.35 4 242.35 4 242.35 0 424.35 0 424.35 64 244.35 64 244.35 120 302.35 120 302.35 124"/><polygon class="cls-3" points="244.35 482 240.35 482 240.35 360 360.35 360 360.35 304 120.35 304 120.35 240 540.35 240 540.35 124 422.35 124 422.35 120 544.35 120 544.35 244 124.35 244 124.35 300 364.35 300 364.35 364 244.35 364 244.35 482"/><polygon class="cls-3" points="604.35 64 482.35 64 482.35 60 600.35 60 600.35 4 482.35 4 482.35 0 604.35 0 604.35 64"/><polygon class="cls-3" points="484.35 604 120.35 604 120.35 482 124.35 482 124.35 600 480.35 600 480.35 482 484.35 482 484.35 604"/><polygon class="cls-3" points="784.35 302 780.35 302 780.35 64 660.35 64 660.35 2 664.35 2 664.35 60 784.35 60 784.35 302"/><polygon class="cls-3" points="604.35 482 600.35 482 600.35 360 842.35 360 842.35 364 604.35 364 604.35 482"/><polygon class="cls-3" points="64 604 2 604 2 600 60 600 60 484 0 484 0 420 122 420 122 424 4 424 4 480 64 480 64 604"/><polygon class="cls-3" points="122 364 60 364 60 244 2 244 2 240 64 240 64 360 122 360 122 364"/><polygon class="cls-3" points="62 184 0 184 0 122 4 122 4 180 62 180 62 184"/></g></g></svg>