<svg xmlns="http://www.w3.org/2000/svg" viewBox="0 0 777.65 596.9"><defs><style>.cls-1{fill:#5d92d1;}.cls-2{fill:#2d65b5;}</style></defs><title>experience0</title><g id="Layer_2" data-name="Layer 2"><g id="Layer_7" data-name="Layer 7"><rect class="cls-1" x="30" y="266.9" width="60" height="240"/><path class="cls-2" d="M99.69,581.88a60,60,0,1,0-79.38,0A84.7,84.7,0,0,0,0,596.9H120A84.7,84.7,0,0,0,99.69,581.88Z"/><path class="cls-1" d="M255.84,122.28a50.7,50.7,0,1,1,72.63-70.77l25.92-25.26A86.88,86.88,0,0,0,205.73,78L36.26,247.51l42.42,42.42,147.06-147c1.33,1.59,2.71,3.15,4.18,4.66a86.9,86.9,0,0,0,122.88,1.59l-25.26-25.92A50.69,50.69,0,0,1,255.84,122.28Z"/><rect class="cls-2" x="330" y="536.9" width="360" height="60"/><rect class="cls-1" x="242.35" y="476.9" width="535.29" height="30" rx="15"/><rect class="cls-2" x="300" y="416.9" width="180" height="60"/><rect class="cls-2" x="600" y="356.9" width="120" height="60"/><rect class="cls-2" x="480" y="356.9" width="60" height="60"/><rect class="cls-2" x="420" y="116.9" width="60" height="60"/><rect class="cls-1" x="360" y="176.9" width="120" height="60"/><rect class="cls-2" x="330" y="266.9" width="120" height="60" transform="translate(93.1 686.9) rotate(-90)"/><rect class="cls-2" x="510" y="206.9" width="120" height="60" transform="translate(333.1 806.9) rotate(-90)"/><rect class="cls-1" x="300" y="356.9" width="120" height="60"/><rect class="cls-1" x="480" y="416.9" width="180" height="60"/><rect class="cls-1" x="480" y="116.9" width="120" height="60"/><rect class="cls-1" x="300" y="56.9" width="180" height="60"/><rect class="cls-1" x="420" y="296.9" width="300" height="60"/><circle class="cls-1" cx="60" cy="536.9" r="30"/><circle class="cls-2" cx="60" cy="266.9" r="60"/><circle class="cls-1" cx="60" cy="266.9" r="30"/></g></g></svg>