<svg xmlns="http://www.w3.org/2000/svg" viewBox="0 0 521.1 530.01"><defs><style>.cls-1{fill:#cddcf1;}.cls-2{fill:#2d65b5;}.cls-3{fill:#5d92d1;}.cls-4{fill:#fff;}.cls-5{fill:#00194b;}</style></defs><title>bannersmentor0</title><g id="Layer_2" data-name="Layer 2"><g id="balls"><path class="cls-1" d="M324.66,289.09H262.2v-38h54.59l41.74-41.73,26.87,26.87-47.3,47.3A19,19,0,0,1,324.66,289.09Z"/><rect class="cls-2" x="425.15" y="167.2" width="13.27" height="112.9" rx="5.57"/><circle class="cls-2" cx="459" cy="507.68" r="22.33"/><circle class="cls-2" cx="404.57" cy="507.68" r="22.33"/><path class="cls-3" d="M431.79,195.08h0a67,67,0,0,1,67,67V507.68a0,0,0,0,1,0,0h-134a0,0,0,0,1,0,0V262.07A67,67,0,0,1,431.79,195.08Z"/><rect class="cls-2" x="342.47" y="290.09" width="178.63" height="43.94" rx="21.97"/><circle class="cls-2" cx="431.79" cy="167.2" r="12.8"/><rect class="cls-2" x="342.47" y="370.09" width="178.63" height="43.94" rx="21.97"/><polygon class="cls-1" points="212.2 0 92.2 0 52.2 170 92.2 170 212.2 170 252.2 170 212.2 0"/><polygon class="cls-3" points="302.2 350.01 272.2 170.04 32.2 170.04 2.2 350.01 2.2 410.01 131.1 410.01 131.1 455.66 171.1 455.66 171.1 410.01 302.2 410.01 302.2 350.01"/><path class="cls-3" d="M45,514.47a30,30,0,0,1,0-60H257.2a30,30,0,1,1,0,60Z"/><path class="cls-1" d="M257.2,469.47a15,15,0,1,1,0,30H45a15,15,0,0,1,0-30H257.2m0-30H45a45.13,45.13,0,0,0-45,45H0a45.13,45.13,0,0,0,45,45H257.2a45.13,45.13,0,0,0,45-45h0a45.13,45.13,0,0,0-45-45Z"/><polygon class="cls-4" points="200.13 85.29 187.92 33.38 160.21 33.38 160.21 23.38 195.84 23.38 209.87 83 200.13 85.29"/><polygon class="cls-2" points="293.82 300.01 10.57 300.01 20.57 240.01 283.82 240.01 293.82 300.01"/><circle class="cls-5" cx="152.2" cy="270.09" r="15"/><circle class="cls-5" cx="92.2" cy="270.09" r="15"/><circle class="cls-5" cx="212.2" cy="270.09" r="15"/></g></g></svg>