<svg xmlns="http://www.w3.org/2000/svg" viewBox="0 0 783.4 734.92"><defs><style>.cls-1{fill:#2d65b5;}.cls-2{fill:#5d92d1;}.cls-3{fill:#cddcf1;}.cls-4{fill:#00194b;}</style></defs><title>prototype0</title><g id="Layer_2" data-name="Layer 2"><g id="Layer_7" data-name="Layer 7"><rect class="cls-1" x="363.4" y="44.92" width="420" height="660"/><rect class="cls-2" x="123.4" y="64.4" width="420" height="606.12" transform="translate(-139.06 215.93) rotate(-30)"/><path class="cls-3" d="M782.51,159.15,273.4,201.57,506.74,434.92l39.08-39.08-10.38-10.37,6.47-6.46,10.37,10.37,36-36-18-18,6.46-6.46,18,18,36-36L620.3,300.62l6.46-6.47,10.37,10.38,36-36-18-18,6.47-6.46,18,18,36-36-10.37-10.37,6.46-6.47L722,219.67ZM506.74,350.07,398.29,241.62,634,222.79Z"/><rect class="cls-1" x="303.4" y="494.92" width="360" height="60"/><polygon class="cls-4" points="303.4 494.92 303.4 554.92 243.4 524.92 303.4 494.92"/><path class="cls-4" d="M693.4,494.92h20a10,10,0,0,1,10,10v40a10,10,0,0,1-10,10h-20a0,0,0,0,1,0,0v-60A0,0,0,0,1,693.4,494.92Z"/><rect class="cls-2" x="663.46" y="494.64" width="29.93" height="60.28"/></g></g></svg>