<svg xmlns="http://www.w3.org/2000/svg" viewBox="0 0 538.75 582.65"><defs><style>.cls-1{fill:#1564bb;}.cls-2{fill:#2d65b5;}.cls-3{fill:#5d92d1;}.cls-4{fill:#cddcf1;}.cls-5{fill:#fff;}.cls-6{fill:#00194b;}</style></defs><title>bannersVolunteer0</title><g id="Layer_2" data-name="Layer 2"><g id="balls"><path class="cls-1" d="M508.59,472.65h-60a10,10,0,0,1,0-20h50v-50a10,10,0,0,1,20,0v60A10,10,0,0,1,508.59,472.65Z"/><path class="cls-1" d="M88.59,472.65h-60a10,10,0,0,1-10-10v-60a10,10,0,0,1,20,0v50h50a10,10,0,1,1,0,20Z"/><path class="cls-2" d="M297.69,28.82a28.82,28.82,0,1,1-57.64,0Z"/><path class="cls-3" d="M297.69,28.82H240.05a28.82,28.82,0,0,1,57.64,0Z"/><path class="cls-2" d="M496.8,220.06A28.82,28.82,0,0,1,468,170.14Z"/><path class="cls-3" d="M496.8,220.06,468,170.14a28.82,28.82,0,1,1,28.82,49.92Z"/><path class="cls-2" d="M69.76,168.21a28.82,28.82,0,1,1-28.82,49.91Z"/><path class="cls-3" d="M69.76,168.21,40.94,218.12a28.82,28.82,0,0,1,28.82-49.91Z"/><path class="cls-2" d="M153.83,66.82a28.82,28.82,0,1,1-49.92,28.82Z"/><path class="cls-3" d="M153.83,66.82,103.91,95.64a28.82,28.82,0,0,1,49.92-28.82Z"/><path class="cls-2" d="M433.83,95.64a28.82,28.82,0,1,1-49.92-28.82Z"/><path class="cls-3" d="M433.83,95.64,383.91,66.82a28.82,28.82,0,0,1,49.92,28.82Z"/><path class="cls-2" d="M28.82,291a28.82,28.82,0,0,1,0,57.64Z"/><path class="cls-3" d="M28.82,291v57.64a28.82,28.82,0,0,1,0-57.64Z"/><path class="cls-2" d="M509.93,348.64a28.82,28.82,0,0,1,0-57.64Z"/><path class="cls-3" d="M509.93,348.64V291a28.82,28.82,0,0,1,0,57.64Z"/><path class="cls-4" d="M268.59,162.65h0a120,120,0,0,1,120,120v120a0,0,0,0,1,0,0h-240a0,0,0,0,1,0,0v-120a120,120,0,0,1,120-120Z"/><path class="cls-5" d="M351.18,251.08a114.86,114.86,0,0,0-62.12-56.27l3.55-9.35a124.86,124.86,0,0,1,67.52,61.16Z"/><rect class="cls-3" x="88.59" y="402.65" width="360" height="120.02"/><path class="cls-2" d="M148.49,522.68H391.65a56.93,56.93,0,0,1,56.93,56.93v3a0,0,0,0,1,0,0h-360a0,0,0,0,1,0,0v0A59.93,59.93,0,0,1,148.49,522.68Z" transform="translate(537.14 1105.33) rotate(180)"/><rect class="cls-3" x="448.61" y="443.91" width="20" height="40"/><rect class="cls-3" x="68.59" y="442.67" width="20" height="40"/><circle class="cls-6" cx="268.59" cy="471.41" r="15"/><circle class="cls-6" cx="208.59" cy="471.41" r="15"/><circle class="cls-6" cx="328.59" cy="471.41" r="15"/></g></g></svg>