<?xml version="1.0" encoding="utf-8"?>
<!-- Generator: Adobe Illustrator 24.0.1, SVG Export Plug-In . SVG Version: 6.00 Build 0)  -->
<svg version="1.1" id="Layer_1" xmlns="http://www.w3.org/2000/svg" xmlns:xlink="http://www.w3.org/1999/xlink" x="0px" y="0px"
	 viewBox="0 0 175 146" style="enable-background:new 0 0 175 146;" xml:space="preserve">
<style type="text/css">
	.st0{enable-background:new    ;}
	.st1{fill:#3762B6;}
</style>
<g class="st0">
	<path class="st1" d="M42.8,52.1c4.5,1.6,7.9,3.5,10.1,5.9c2.2,2.4,3.3,5.5,3.3,9.4c0,4.3-1.7,8-5.2,11.1c-3.8,3.3-9.2,5.2-16.1,5.7
		v7.9h-7.6V84C21,83.4,16,81.5,12.1,78.4c-4.1-3.4-6.2-7.9-6.2-13.7h10.5c0,2.9,0.9,5.1,2.8,6.6c1.9,1.5,4.6,2.5,8.1,2.9V56.7
		l-4.5-1.5c-5-1.7-8.9-3.7-11.7-6.1c-2.8-2.4-4.1-5.7-4.1-9.9c0-4.3,1.7-7.8,5.2-10.7c3.4-2.8,8.5-4.5,15.2-5v-6.8h7.6v6.9
		c5.8,0.6,10.3,2.4,13.3,5.4c3.1,3,5,6.9,5.9,11.7H43.5c-0.3-1.8-1.2-3.4-2.7-4.8c-1.5-1.4-3.5-2.4-6-2.9v16.4L42.8,52.1z
		 M20.7,35.1c-1.5,1.3-2.2,2.7-2.2,4.4c0,1.7,0.5,3,1.4,4c1,1,2.5,1.8,4.6,2.6l2.7,1.1V32.7C24.4,33,22.2,33.9,20.7,35.1z
		 M41.9,71.9c1.5-1.3,2.2-2.9,2.2-4.7c0-3.4-2.2-5.9-6.5-7.6l-2.9-1.1v15.8C38.1,74.1,40.4,73.2,41.9,71.9z"/>
	<path class="st1" d="M104.1,24v37h10.2V70h-10.2v13H93.6V70H64v-8L93.9,24H104.1z M76.6,62h17.5V39.7L76.6,62z"/>
	<path class="st1" d="M134.6,24.6v24l23-24h14.6l-25.7,26.3L174,83h-13.8l-20.8-24.8l-4.8,4.9V83h-10.7V24.6H134.6z"/>
</g>
<g class="st0">
	<path class="st1" d="M19.8,118.5h3.5V138h-3.5V118.5z"/>
	<path class="st1" d="M32.7,118.5l8.6,13.8v-13.8h3.5V138h-3.6l-8.9-14.3V138h-3.5v-19.5H32.7z"/>
	<path class="st1" d="M69.9,120.1c1.2,1.1,1.8,2.6,1.8,4.6c0,2-0.6,3.5-1.8,4.6c-1.2,1.1-2.9,1.6-5.1,1.6h-3.3v7.1h-3.6v-19.5h6.9
		C67,118.5,68.7,119.1,69.9,120.1z M64.8,127.8c1.1,0,1.9-0.3,2.5-0.9c0.6-0.6,0.8-1.3,0.8-2.2c0-0.9-0.3-1.7-0.8-2.2
		c-0.6-0.6-1.4-0.9-2.5-0.9h-3.3v6.2H64.8z"/>
	<path class="st1" d="M89.9,124.5c0,1.4-0.4,2.6-1.2,3.5c-0.8,1-1.9,1.7-3.4,2l5.2,7.9H86l-4.3-7.6H79v7.6h-3.5v-19.5h7.2
		c2.3,0,4.1,0.5,5.4,1.6C89.3,121.2,89.9,122.7,89.9,124.5z M82.3,128c1.3,0,2.3-0.3,2.9-0.9c0.7-0.6,1-1.4,1-2.3
		c0-1-0.3-1.8-0.9-2.3c-0.6-0.6-1.5-0.9-2.7-0.9H79v6.5H82.3z"/>
	<path class="st1" d="M94.8,118.5h3.5V138h-3.5V118.5z"/>
	<path class="st1" d="M103.3,134.9l10.3-13.1l-10.3,0v-3.2H118v3l-10.3,13.2l10.3,0v3.2h-14.7V134.9z"/>
	<path class="st1" d="M122.7,118.5h12.5v3.1h-9v5.1h8.4v3.1h-8.4v5.1h9v3.1h-12.5V118.5z"/>
	<path class="st1" d="M150.6,123.9c-0.3-1.7-1.5-2.6-3.6-2.6c-1,0-1.8,0.2-2.4,0.6c-0.6,0.4-0.9,0.9-0.9,1.5s0.2,1,0.6,1.4
		c0.4,0.3,0.9,0.6,1.7,0.9l4.2,1.6c1.4,0.6,2.5,1.3,3.3,2.1c0.8,0.9,1.2,1.9,1.2,3.2c0,1.8-0.7,3.2-2,4.2s-3.2,1.5-5.6,1.5
		c-2.2,0-3.9-0.5-5.2-1.6c-1.5-1.2-2.3-2.8-2.4-4.9h3.5c0,1.6,0.8,2.6,2.5,3c0.5,0.1,1.2,0.2,2,0.2c0.8,0,1.6-0.2,2.3-0.6
		c0.7-0.4,1-1,1-1.7c0-0.7-0.2-1.2-0.6-1.6c-0.4-0.4-1-0.7-1.9-1l-3.9-1.5c-1.5-0.6-2.7-1.3-3.5-2c-0.8-0.8-1.2-1.9-1.2-3.2
		c0-1.6,0.6-2.9,1.9-3.8c1.3-1,3-1.5,5.2-1.5c2.2,0,3.9,0.5,5.1,1.5c1.2,1,1.9,2.4,2.1,4.2H150.6z"/>
</g>
</svg>
