<?xml version="1.0" encoding="utf-8"?>
<!-- Generator: Adobe Illustrator 24.0.1, SVG Export Plug-In . SVG Version: 6.00 Build 0)  -->
<svg version="1.1" id="Layer_1" xmlns="http://www.w3.org/2000/svg" xmlns:xlink="http://www.w3.org/1999/xlink" x="0px" y="0px"
	 viewBox="0 0 147 145" style="enable-background:new 0 0 147 145;" xml:space="preserve">
<style type="text/css">
	.st0{enable-background:new    ;}
	.st1{fill:#3366B6;}
</style>
<g class="st0">
	<path class="st1" d="M3.8,29c4.5-0.7,8.5-2.2,11.9-4.8h8V83H13V36.9c-3.1,1.5-6.2,2.2-9.3,2.2V29z"/>
	<path class="st1" d="M60.6,23.4c3.6,0,6.9,0.6,9.9,1.8c3,1.2,5.5,3.1,7.6,5.6c4.6,5.3,6.8,13,6.8,23c0,10-2.3,17.6-6.8,23
		c-4.2,5-10,7.5-17.4,7.5c-7.4,0-13.3-2.5-17.5-7.5c-4.5-5.2-6.8-12.9-6.8-23s2.2-17.7,6.8-23C47.4,25.9,53.2,23.4,60.6,23.4z
		 M70.4,38.4c-2.3-3.6-5.6-5.4-9.8-5.4s-7.5,1.8-9.8,5.4c-2.3,3.6-3.5,8.7-3.5,15.4c0,6.7,1.2,11.8,3.5,15.3
		c2.3,3.5,5.6,5.3,9.8,5.3s7.5-1.8,9.8-5.3c2.3-3.5,3.5-8.6,3.5-15.3C73.9,47.1,72.7,42,70.4,38.4z"/>
	<path class="st1" d="M117.5,23.4c3.6,0,6.9,0.6,9.9,1.8c3,1.2,5.5,3.1,7.6,5.6c4.6,5.3,6.8,13,6.8,23c0,10-2.3,17.6-6.8,23
		c-4.2,5-10,7.5-17.4,7.5c-7.4,0-13.3-2.5-17.5-7.5c-4.5-5.2-6.8-12.9-6.8-23s2.2-17.7,6.8-23C104.3,25.9,110.2,23.4,117.5,23.4z
		 M127.4,38.4c-2.3-3.6-5.6-5.4-9.8-5.4s-7.5,1.8-9.8,5.4c-2.3,3.6-3.5,8.7-3.5,15.4c0,6.7,1.2,11.8,3.5,15.3
		c2.3,3.5,5.6,5.3,9.8,5.3s7.5-1.8,9.8-5.3c2.3-3.5,3.5-8.6,3.5-15.3C130.9,47.1,129.7,42,127.4,38.4z"/>
</g>
<g class="st0">
	<path class="st1" d="M11.3,117.5v8.1h8.5v-8.1h3.5V137h-3.5v-8.2h-8.5v8.2H7.8v-19.5H11.3z"/>
	<path class="st1" d="M33.5,117.5h4.4l6.4,19.5h-3.8l-1.4-4.2H32l-1.4,4.2h-3.8L33.5,117.5z M32.9,130.1h5.5l-2.7-8.4L32.9,130.1z"
		/>
	<path class="st1" d="M54.7,117.1c1.2,0,2.2,0.1,3.1,0.4c0.9,0.3,1.6,0.7,2.3,1.2c1.3,1,2.1,2.5,2.5,4.3l-3.8,0.7
		c-0.3-1-0.8-1.8-1.5-2.5c-0.7-0.6-1.5-0.9-2.5-0.9c-1.4,0-2.5,0.6-3.3,1.7c-0.9,1.2-1.3,3-1.3,5.1c0,2.2,0.4,3.9,1.2,5.1
		c0.8,1.2,1.9,1.8,3.3,1.8s2.4-0.3,3.1-1c0.7-0.7,1-1.5,1-2.6h3.8c0,2.2-0.7,3.9-2.1,5.1c-1.4,1.2-3.3,1.8-5.7,1.8
		c-2.6,0-4.6-0.9-6.1-2.7c-1.5-1.8-2.3-4.3-2.3-7.5c0-3.2,0.8-5.7,2.4-7.5C50.3,118,52.3,117.1,54.7,117.1z"/>
	<path class="st1" d="M70.3,117.5v8l7.7-8h4.9l-8.6,8.8l9.2,10.7h-4.6l-6.9-8.2l-1.6,1.6v6.6h-3.6v-19.5H70.3z"/>
	<path class="st1" d="M86.4,117.5h12.5v3.1h-9v5.1h8.4v3.1h-8.4v5.1h9v3.1H86.4V117.5z"/>
	<path class="st1" d="M118.4,123.5c0,1.4-0.4,2.6-1.2,3.5c-0.8,1-1.9,1.7-3.4,2l5.2,7.9h-4.6l-4.3-7.6h-2.7v7.6H104v-19.5h7.2
		c2.3,0,4.1,0.5,5.4,1.6C117.8,120.2,118.4,121.7,118.4,123.5z M110.8,127c1.3,0,2.3-0.3,2.9-0.9c0.7-0.6,1-1.4,1-2.3
		c0-1-0.3-1.8-0.9-2.3c-0.6-0.6-1.5-0.9-2.7-0.9h-3.7v6.5H110.8z"/>
	<path class="st1" d="M133.5,122.9c-0.3-1.7-1.5-2.6-3.6-2.6c-1,0-1.8,0.2-2.4,0.6c-0.6,0.4-0.9,0.9-0.9,1.5s0.2,1,0.6,1.4
		c0.4,0.3,0.9,0.6,1.7,0.9l4.2,1.6c1.4,0.6,2.5,1.3,3.3,2.1c0.8,0.9,1.2,1.9,1.2,3.2c0,1.8-0.7,3.2-2,4.2s-3.2,1.5-5.6,1.5
		c-2.2,0-3.9-0.5-5.2-1.6c-1.5-1.2-2.3-2.8-2.4-4.9h3.5c0,1.6,0.8,2.6,2.5,3c0.5,0.1,1.2,0.2,2,0.2c0.8,0,1.6-0.2,2.3-0.6
		c0.7-0.4,1-1,1-1.7c0-0.7-0.2-1.2-0.6-1.6c-0.4-0.4-1-0.7-1.9-1l-3.9-1.5c-1.5-0.6-2.7-1.3-3.5-2c-0.8-0.8-1.2-1.9-1.2-3.2
		c0-1.6,0.6-2.9,1.9-3.8c1.3-1,3-1.5,5.2-1.5c2.2,0,3.9,0.5,5.1,1.5c1.2,1,1.9,2.4,2.1,4.2H133.5z"/>
</g>
</svg>
