<?xml version="1.0" encoding="utf-8"?>
<!-- Generator: Adobe Illustrator 24.0.1, SVG Export Plug-In . SVG Version: 6.00 Build 0)  -->
<svg version="1.1" id="Layer_1" xmlns="http://www.w3.org/2000/svg" xmlns:xlink="http://www.w3.org/1999/xlink" x="0px" y="0px"
	 viewBox="0 0 108 143" style="enable-background:new 0 0 108 143;" xml:space="preserve">
<style type="text/css">
	.st0{enable-background:new    ;}
	.st1{fill:#3366B6;}
</style>
<g class="st0">
	<path class="st1" d="M9.3,115.5v8.1h8.5v-8.1h3.5V135h-3.5v-8.2H9.3v8.2H5.8v-19.5H9.3z"/>
	<path class="st1" d="M34.4,115.1c1.3,0,2.5,0.2,3.6,0.6s2,1.1,2.8,1.9c1.6,1.8,2.5,4.3,2.5,7.6c0,3.3-0.8,5.8-2.5,7.7
		c-1.6,1.7-3.7,2.5-6.4,2.5c-2.7,0-4.8-0.9-6.4-2.6c-1.6-1.8-2.5-4.3-2.5-7.6c0-3.3,0.8-5.9,2.5-7.6C29.6,116,31.7,115.1,34.4,115.1
		z M39.6,125.3c0-2.2-0.5-3.9-1.4-5.2c-0.9-1.2-2.2-1.8-3.8-1.8s-2.8,0.6-3.8,1.8c-0.9,1.2-1.4,2.9-1.4,5.2c0,2.2,0.5,3.9,1.4,5.1
		c0.9,1.2,2.2,1.8,3.8,1.8s2.8-0.6,3.8-1.8C39.1,129.2,39.6,127.5,39.6,125.3z"/>
	<path class="st1" d="M50.7,115.5v12.1c0,1.6,0.4,2.8,1.2,3.4c0.8,0.7,1.9,1.1,3.1,1.1s2.3-0.3,3.1-1.1c0.8-0.7,1.2-1.8,1.2-3.4
		v-12.1h3.5v12.1c0,2.5-0.7,4.4-2.1,5.7c-1.4,1.4-3.3,2-5.8,2s-4.4-0.7-5.8-2c-1.4-1.3-2.1-3.3-2.1-5.7v-12.1H50.7z"/>
	<path class="st1" d="M82.6,121.5c0,1.4-0.4,2.6-1.2,3.5c-0.8,1-1.9,1.7-3.4,2l5.2,7.9h-4.6l-4.3-7.6h-2.7v7.6h-3.5v-19.5h7.2
		c2.3,0,4.1,0.5,5.4,1.6C82,118.2,82.6,119.7,82.6,121.5z M75,125c1.3,0,2.3-0.3,2.9-0.9s1-1.4,1-2.3c0-1-0.3-1.8-0.9-2.3
		c-0.6-0.6-1.5-0.9-2.7-0.9h-3.7v6.5H75z"/>
	<path class="st1" d="M97.7,120.9c-0.3-1.7-1.5-2.6-3.6-2.6c-1,0-1.8,0.2-2.4,0.6c-0.6,0.4-0.9,0.9-0.9,1.5s0.2,1,0.6,1.4
		c0.4,0.3,0.9,0.6,1.7,0.9l4.2,1.6c1.4,0.6,2.6,1.3,3.3,2.1c0.8,0.9,1.2,1.9,1.2,3.2c0,1.8-0.7,3.2-2,4.2s-3.2,1.5-5.6,1.5
		c-2.2,0-3.9-0.5-5.2-1.6c-1.5-1.2-2.3-2.8-2.4-4.9h3.5c0,1.6,0.8,2.6,2.5,3c0.5,0.1,1.2,0.2,2,0.2s1.6-0.2,2.3-0.6s1-1,1-1.7
		c0-0.7-0.2-1.2-0.6-1.6c-0.4-0.4-1-0.7-1.9-1l-3.9-1.5c-1.5-0.6-2.7-1.3-3.5-2c-0.8-0.8-1.2-1.9-1.2-3.2c0-1.6,0.6-2.9,1.9-3.8
		c1.3-1,3-1.5,5.2-1.5c2.2,0,3.9,0.5,5.1,1.5s1.9,2.4,2.1,4.2H97.7z"/>
</g>
<g class="st0">
	<path class="st1" d="M42.1,24v37h10.2V70H42.1v13H31.6V70H2v-8L31.9,24H42.1z M14.6,62h17.5V39.7L14.6,62z"/>
	<path class="st1" d="M69.6,73.3H103V83h-44V73c0-7,2.5-12.1,7.5-15.3c1.7-1.1,3.6-2,5.9-2.9l12-4.6c2.6-1,4.6-2.3,5.8-3.8
		c1.2-1.5,1.8-3.4,1.8-5.7c0-2.3-0.8-4.2-2.4-5.7c-1.6-1.5-3.9-2.3-6.9-2.3c-3,0-5.5,0.7-7.4,2.2c-2,1.4-3.1,3.6-3.4,6.4H59.9
		c0.1-5.7,2.3-10.2,6.6-13.4c3.9-2.9,9.1-4.4,15.8-4.4c6.1,0,11.1,1.6,15,4.9c4,3.4,6,7.5,6,12.3c0,4.9-1.2,8.7-3.6,11.7
		c-2.4,2.9-6.2,5.4-11.3,7.3l-12.2,4.7c-2.3,0.9-4,1.9-5.1,3c-1.1,1.1-1.6,2.5-1.6,4.3V73.3z"/>
</g>
</svg>
