<?xml version="1.0" encoding="utf-8"?>
<!-- Generator: Adobe Illustrator 24.0.1, SVG Export Plug-In . SVG Version: 6.00 Build 0)  -->
<svg version="1.1" id="Layer_1" xmlns="http://www.w3.org/2000/svg" xmlns:xlink="http://www.w3.org/1999/xlink" x="0px" y="0px"
	 viewBox="0 0 143 146" style="enable-background:new 0 0 143 146;" xml:space="preserve">
<style type="text/css">
	.st0{enable-background:new    ;}
	.st1{fill:#3366B6;}
</style>
<g class="st0">
	<path class="st1" d="M32,73.3h33.4V83h-44V73c0-7,2.5-12.1,7.5-15.3c1.7-1.1,3.6-2,5.9-2.9l12-4.6c2.6-1,4.6-2.3,5.8-3.8
		c1.2-1.5,1.8-3.4,1.8-5.7c0-2.3-0.8-4.2-2.4-5.7c-1.6-1.5-3.9-2.3-6.9-2.3c-3,0-5.5,0.7-7.4,2.2c-2,1.4-3.1,3.6-3.4,6.4H22.4
		c0.1-5.7,2.3-10.2,6.6-13.4c3.9-2.9,9.1-4.4,15.8-4.4c6.1,0,11.1,1.6,15,4.9c4,3.4,6,7.5,6,12.3c0,4.9-1.2,8.7-3.6,11.7
		c-2.4,2.9-6.2,5.4-11.3,7.3l-12.1,4.7c-2.3,0.9-4,1.9-5.1,3c-1.1,1.1-1.6,2.5-1.6,4.3V73.3z"/>
	<path class="st1" d="M98.3,33c-6.5,0-10.3,2.5-11.4,7.5H75.7c0.6-5.8,2.9-10.1,7-13c3.8-2.7,8.9-4,15.1-4c6.4,0,11.6,1.5,15.7,4.5
		c4.2,3.1,6.3,7,6.3,11.8c0,3-0.8,5.6-2.4,7.8c-1.6,2.2-4,3.8-7.2,4.9c3.5,1.2,6.4,3,8.5,5.4c2.1,2.4,3.2,5.1,3.2,8.1
		c0,3.1-0.6,5.7-1.7,7.8c-1.1,2.2-2.7,4-4.7,5.6c-4.3,3.3-9.9,5-16.8,5c-6.6,0-12.1-1.7-16.6-5c-5-3.7-7.6-8.5-7.6-14.6h11.3
		c0.2,3.1,1.4,5.5,3.7,7.2c2.3,1.7,5.3,2.6,9,2.6c3.7,0,6.6-0.8,8.7-2.5c2.1-1.6,3.1-3.7,3.1-6.3c0-2.5-0.9-4.5-2.8-6
		c-1.9-1.4-4.9-2.2-9-2.2h-7.7v-8.4h6.7c3.4,0,6.1-0.7,8-2.2c1.9-1.5,2.9-3.4,2.9-5.8c0-2.4-0.8-4.3-2.5-5.9
		C104.2,33.8,101.7,33,98.3,33z"/>
</g>
<g class="st0">
	<path class="st1" d="M14.7,120.1c1.2,1.1,1.8,2.6,1.8,4.6c0,2-0.6,3.5-1.8,4.6c-1.2,1.1-2.9,1.6-5.1,1.6H6.3v7.1H2.7v-19.5h6.9
		C11.8,118.5,13.5,119.1,14.7,120.1z M9.6,127.8c1.1,0,1.9-0.3,2.5-0.9c0.6-0.6,0.8-1.3,0.8-2.2c0-0.9-0.3-1.7-0.8-2.2
		c-0.6-0.6-1.4-0.9-2.5-0.9H6.3v6.2H9.6z"/>
	<path class="st1" d="M34.7,124.5c0,1.4-0.4,2.6-1.2,3.5c-0.8,1-1.9,1.7-3.4,2l5.2,7.9h-4.6l-4.3-7.6h-2.7v7.6h-3.5v-19.5h7.2
		c2.3,0,4.1,0.5,5.4,1.6C34,121.2,34.7,122.7,34.7,124.5z M27.1,128c1.3,0,2.3-0.3,2.9-0.9c0.7-0.6,1-1.4,1-2.3c0-1-0.3-1.8-0.9-2.3
		c-0.6-0.6-1.5-0.9-2.7-0.9h-3.7v6.5H27.1z"/>
	<path class="st1" d="M47,118.1c1.3,0,2.5,0.2,3.6,0.6s2,1.1,2.8,1.9c1.6,1.8,2.5,4.3,2.5,7.6c0,3.3-0.8,5.8-2.5,7.7
		c-1.6,1.7-3.7,2.5-6.4,2.5c-2.7,0-4.8-0.9-6.4-2.6c-1.6-1.8-2.5-4.3-2.5-7.6c0-3.3,0.8-5.9,2.5-7.6C42.2,119,44.3,118.1,47,118.1z
		 M52.2,128.3c0-2.2-0.5-3.9-1.4-5.2c-0.9-1.2-2.2-1.8-3.8-1.8s-2.8,0.6-3.8,1.8c-0.9,1.2-1.4,2.9-1.4,5.2c0,2.2,0.5,3.9,1.4,5.1
		c0.9,1.2,2.2,1.8,3.8,1.8s2.8-0.6,3.8-1.8C51.7,132.2,52.2,130.5,52.2,128.3z"/>
	<path class="st1" d="M57.7,137.2v-3.5c1.5,0.9,3,1.3,4.5,1.3c0.9,0,1.5-0.2,1.9-0.8c0.4-0.5,0.6-1.3,0.6-2.3v-13.4h3.6v13.4
		c0,2.2-0.5,3.9-1.6,5c-1,1-2.3,1.5-4,1.5C61,138.4,59.3,138,57.7,137.2z"/>
	<path class="st1" d="M73.3,118.5h12.5v3.1h-9v5.1h8.4v3.1h-8.4v5.1h9v3.1H73.3V118.5z"/>
	<path class="st1" d="M97.9,118.1c1.2,0,2.2,0.1,3.1,0.4c0.9,0.3,1.6,0.7,2.3,1.2c1.3,1,2.1,2.5,2.5,4.3l-3.8,0.7
		c-0.3-1-0.8-1.8-1.5-2.5s-1.5-0.9-2.5-0.9c-1.4,0-2.5,0.6-3.3,1.7c-0.9,1.2-1.3,3-1.3,5.1c0,2.2,0.4,3.9,1.2,5.1
		c0.8,1.2,1.9,1.8,3.3,1.8s2.4-0.3,3.1-1c0.7-0.7,1-1.5,1-2.6h3.8c0,2.2-0.7,3.9-2.1,5.1c-1.4,1.2-3.3,1.8-5.7,1.8
		c-2.6,0-4.6-0.9-6.2-2.7c-1.5-1.8-2.3-4.3-2.3-7.5c0-3.2,0.8-5.7,2.4-7.5C93.4,119,95.4,118.1,97.9,118.1z"/>
	<path class="st1" d="M107.3,118.5h15.6v3.1h-6V138h-3.5v-16.4h-6V118.5z"/>
	<path class="st1" d="M136.1,123.9c-0.3-1.7-1.5-2.6-3.6-2.6c-1,0-1.8,0.2-2.4,0.6c-0.6,0.4-0.9,0.9-0.9,1.5s0.2,1,0.6,1.4
		c0.4,0.3,0.9,0.6,1.7,0.9l4.2,1.6c1.4,0.6,2.6,1.3,3.3,2.1c0.8,0.9,1.2,1.9,1.2,3.2c0,1.8-0.7,3.2-2,4.2c-1.3,1-3.2,1.5-5.6,1.5
		c-2.2,0-3.9-0.5-5.2-1.6c-1.5-1.2-2.3-2.8-2.4-4.9h3.5c0,1.6,0.8,2.6,2.5,3c0.5,0.1,1.2,0.2,2,0.2s1.6-0.2,2.3-0.6
		c0.7-0.4,1.1-1,1.1-1.7c0-0.7-0.2-1.2-0.6-1.6s-1-0.7-1.9-1l-3.9-1.5c-1.5-0.6-2.7-1.3-3.4-2c-0.8-0.8-1.2-1.9-1.2-3.2
		c0-1.6,0.6-2.9,1.9-3.8c1.3-1,3-1.5,5.2-1.5c2.2,0,3.9,0.5,5.1,1.5c1.2,1,1.9,2.4,2.1,4.2H136.1z"/>
</g>
</svg>
