<svg xmlns="http://www.w3.org/2000/svg" viewBox="0 0 1920 1080"><defs><style>.cls-1,.cls-9{fill:#00194b;}.cls-2{fill:#5d92d1;}.cls-10,.cls-3{fill:#2d65b5;}.cls-11,.cls-4,.cls-6,.cls-7,.cls-8{fill:none;}.cls-4{stroke:#00194b;}.cls-10,.cls-11,.cls-4,.cls-6,.cls-7,.cls-8,.cls-9{stroke-miterlimit:10;}.cls-4,.cls-7{stroke-width:5px;}.cls-5{fill:#cddcf1;}.cls-6,.cls-7{stroke:#2d65b5;}.cls-6{stroke-width:10px;}.cls-8{stroke:#cddcf1;}.cls-10,.cls-11,.cls-8,.cls-9{stroke-width:4px;}.cls-10,.cls-11,.cls-9{stroke:#5d92d1;}.cls-12{opacity:0.05;}.cls-13{fill:#fff;}</style></defs><title>UI_Illustration_Test1</title><g id="background"><polygon class="cls-1" points="1920 1080 0 1080 0 722.35 0 0 1920 0 1920 1080"/></g><g id="background-shapes"><rect class="cls-2" y="186.65" width="1500" height="891.59"/><polyline class="cls-3" points="0 0 780 0 0 240 0 0"/><polygon class="cls-1" points="0 838.11 658.46 1078.24 0 1078.13 0 838.11"/><polygon class="cls-3" points="1080 1080 1623.05 600 1920 720 1920 1080 1080 1080"/></g><g id="lights"><rect class="cls-3" x="360.03" y="313.81" width="60" height="120" transform="translate(780.05 747.63) rotate(180)"/><path class="cls-3" d="M420,433.81a30,30,0,0,1-60,0"/><polyline class="cls-4" points="401.4 313.57 401.4 381.66 378.7 381.66 378.7 313.57"/><rect class="cls-5" x="360.03" y="283.81" width="60" height="30" transform="translate(780.05 597.63) rotate(180)"/><line class="cls-6" x1="390.03" y1="51.78" x2="390.03" y2="283.81"/><rect class="cls-3" x="120.03" y="373.81" width="60" height="120" transform="translate(300.05 867.63) rotate(180)"/><path class="cls-3" d="M180,493.81a30,30,0,0,1-60,0"/><polyline class="cls-4" points="161.4 373.57 161.4 441.66 138.7 441.66 138.7 373.57"/><rect class="cls-5" x="120.03" y="343.81" width="60" height="30" transform="translate(300.05 717.63) rotate(180)"/><line class="cls-6" x1="150.03" y1="111.78" x2="150.03" y2="343.81"/><rect class="cls-5" x="240.03" y="451.51" width="60" height="120" transform="translate(540.05 1023.02) rotate(180)"/><path class="cls-5" d="M300,571.51a30,30,0,0,1-60,0"/><polyline class="cls-7" points="281.4 451.27 281.4 519.35 258.7 519.35 258.7 451.27"/><rect class="cls-3" x="240.03" y="421.51" width="60" height="30" transform="translate(540.05 873.02) rotate(180)"/><line class="cls-8" x1="270.03" y1="625.81" x2="270.03" y2="682.04"/><line class="cls-8" x1="232.05" y1="609.58" x2="203.94" y2="658.27"/><line class="cls-8" x1="308" y1="609.58" x2="336.11" y2="658.27"/><line class="cls-6" x1="270.05" y1="131.78" x2="270.05" y2="421.51"/></g><g id="tube"><rect class="cls-9" x="1725.74" y="320.62" width="40.9" height="93.49"/><rect class="cls-9" x="1776.86" y="423.07" width="92.02" height="492.6"/><rect class="cls-9" x="1622.79" y="422.63" width="92.02" height="371.22"/><path class="cls-10" d="M1879.1,926.51V1020h-40.89a61.34,61.34,0,0,1-61.35-61.34V916.29h92A10.23,10.23,0,0,0,1879.1,926.51Z"/><rect class="cls-9" x="1879.1" y="926.51" width="40.9" height="93.49"/><rect class="cls-9" x="1571.66" y="789.05" width="40.9" height="93.49"/><path class="cls-10" d="M1868.88,382v42.37h-92a10.23,10.23,0,0,0-10.22-10.22V320.62h40.89A61.34,61.34,0,0,1,1868.88,382Z"/><rect class="cls-9" x="1474.44" y="291.27" width="92.02" height="486"/><path class="cls-10" d="M1576.68,789.05v93.49h-40.9a61.34,61.34,0,0,1-61.34-61.34V778.83h92A10.23,10.23,0,0,0,1576.68,789.05Z"/><path class="cls-10" d="M1566.46,249.23V291.6h-92a10.23,10.23,0,0,0-10.22-10.22V187.89h40.89A61.34,61.34,0,0,1,1566.46,249.23Z"/><path class="cls-10" d="M1714.8,778.82V821.2a61.34,61.34,0,0,1-61.34,61.34h-40.9V789a10.23,10.23,0,0,0,10.23-10.22Z"/><path class="cls-10" d="M1725.74,320.61v93.5a10.23,10.23,0,0,0-10.22,10.23h-92.73V382a61.34,61.34,0,0,1,61.34-61.35Z"/><line class="cls-11" x1="1474.44" y1="600" x2="1565.93" y2="600"/><line class="cls-11" x1="1474.44" y1="720" x2="1565.93" y2="720"/><line class="cls-11" x1="1623.05" y1="480" x2="1714.54" y2="480"/><line class="cls-11" x1="1623.05" y1="600" x2="1714.54" y2="600"/><line class="cls-11" x1="1777.12" y1="720" x2="1868.62" y2="720"/><line class="cls-11" x1="1777.12" y1="840" x2="1868.62" y2="840"/><rect class="cls-10" x="1440" y="187.89" width="24.22" height="93.49"/></g><g id="balls"><path class="cls-3" d="M279.53,917.58a44.79,44.79,0,1,1,42.07-29.47,44.67,44.67,0,0,1-42.07,29.47Z"/><path class="cls-2" d="M279.54,830a42.78,42.78,0,1,1-40.19,28.15A42.58,42.58,0,0,1,279.54,830m0-4a46.79,46.79,0,1,0,16,2.83,46.77,46.77,0,0,0-16-2.83Z"/><path class="cls-3" d="M389.74,957.69a44.77,44.77,0,1,1,42.07-29.47,44.59,44.59,0,0,1-42.07,29.47Z"/><path class="cls-2" d="M389.74,870.13a42.78,42.78,0,1,1-40.19,28.15,42.68,42.68,0,0,1,40.19-28.15m0-4a46.79,46.79,0,1,0,16,2.83,46.78,46.78,0,0,0-16-2.83Z"/><path class="cls-3" d="M499.94,997.8A44.78,44.78,0,1,1,542,968.34a44.67,44.67,0,0,1-42.07,29.46Z"/><path class="cls-2" d="M500,910.24a42.79,42.79,0,1,1-40.19,28.15A42.58,42.58,0,0,1,500,910.24m0-4a46.79,46.79,0,1,0,16,2.83,46.78,46.78,0,0,0-16-2.83Z"/><path class="cls-3" d="M169.33,877.47A44.77,44.77,0,1,1,211.4,848a44.59,44.59,0,0,1-42.07,29.47Z"/><path class="cls-2" d="M169.33,789.91a42.77,42.77,0,1,1-40.19,28.15,42.68,42.68,0,0,1,40.19-28.15m0-4a46.79,46.79,0,1,0,16,2.83,46.78,46.78,0,0,0-16-2.83Z"/><path class="cls-3" d="M59.12,837.36a44.79,44.79,0,1,1,42.07-29.47,44.91,44.91,0,0,1-42.07,29.47Z"/><path class="cls-2" d="M59.13,749.8A42.78,42.78,0,1,1,18.94,778,42.58,42.58,0,0,1,59.13,749.8m0-4a46.79,46.79,0,1,0,16,2.83,46.77,46.77,0,0,0-16-2.83Z"/><path class="cls-3" d="M610.15,1037.92a44.78,44.78,0,1,1,42.07-29.47,44.6,44.6,0,0,1-42.07,29.47Z"/><path class="cls-2" d="M610.15,950.35A42.78,42.78,0,1,1,570,978.51a42.68,42.68,0,0,1,40.19-28.16m0-4a46.81,46.81,0,1,0,16,2.84,46.79,46.79,0,0,0-16-2.84Z"/><rect class="cls-3" x="870.31" y="186.65" width="179.37" height="83.35"/><polygon class="cls-3" points="870.32 270 870.32 300 916.78 270 960 300 1002.49 270 1049.68 300 1049.68 270 870.32 270"/></g><g id="Grid"><g class="cls-12"><path class="cls-13" d="M59,1V59H1V1H59m1-1H0V60H60V0Z"/><path class="cls-13" d="M119,1V59H61V1h58m1-1H60V60h60V0Z"/><path class="cls-13" d="M179,1V59H121V1h58m1-1H120V60h60V0Z"/><path class="cls-13" d="M239,1V59H181V1h58m1-1H180V60h60V0Z"/><path class="cls-13" d="M299,1V59H241V1h58m1-1H240V60h60V0Z"/><path class="cls-13" d="M359,1V59H301V1h58m1-1H300V60h60V0Z"/><path class="cls-13" d="M419,1V59H361V1h58m1-1H360V60h60V0Z"/><path class="cls-13" d="M479,1V59H421V1h58m1-1H420V60h60V0Z"/><path class="cls-13" d="M539,1V59H481V1h58m1-1H480V60h60V0Z"/><path class="cls-13" d="M599,1V59H541V1h58m1-1H540V60h60V0Z"/><path class="cls-13" d="M659,1V59H601V1h58m1-1H600V60h60V0Z"/><path class="cls-13" d="M719,1V59H661V1h58m1-1H660V60h60V0Z"/><path class="cls-13" d="M779,1V59H721V1h58m1-1H720V60h60V0Z"/><path class="cls-13" d="M839,1V59H781V1h58m1-1H780V60h60V0Z"/><path class="cls-13" d="M899,1V59H841V1h58m1-1H840V60h60V0Z"/><path class="cls-13" d="M959,1V59H901V1h58m1-1H900V60h60V0Z"/><path class="cls-13" d="M1019,1V59H961V1h58m1-1H960V60h60V0Z"/><path class="cls-13" d="M1079,1V59h-58V1h58m1-1h-60V60h60V0Z"/><path class="cls-13" d="M1139,1V59h-58V1h58m1-1h-60V60h60V0Z"/><path class="cls-13" d="M1199,1V59h-58V1h58m1-1h-60V60h60V0Z"/><path class="cls-13" d="M1259,1V59h-58V1h58m1-1h-60V60h60V0Z"/><path class="cls-13" d="M1319,1V59h-58V1h58m1-1h-60V60h60V0Z"/><path class="cls-13" d="M1379,1V59h-58V1h58m1-1h-60V60h60V0Z"/><path class="cls-13" d="M1439,1V59h-58V1h58m1-1h-60V60h60V0Z"/><path class="cls-13" d="M1499,1V59h-58V1h58m1-1h-60V60h60V0Z"/><path class="cls-13" d="M1559,1V59h-58V1h58m1-1h-60V60h60V0Z"/><path class="cls-13" d="M1619,1V59h-58V1h58m1-1h-60V60h60V0Z"/><path class="cls-13" d="M1679,1V59h-58V1h58m1-1h-60V60h60V0Z"/><path class="cls-13" d="M1739,1V59h-58V1h58m1-1h-60V60h60V0Z"/><path class="cls-13" d="M1799,1V59h-58V1h58m1-1h-60V60h60V0Z"/><path class="cls-13" d="M1859,1V59h-58V1h58m1-1h-60V60h60V0Z"/><path class="cls-13" d="M1919,1V59h-58V1h58m1-1h-60V60h60V0Z"/><path class="cls-13" d="M59,61v58H1V61H59m1-1H0v60H60V60Z"/><path class="cls-13" d="M119,61v58H61V61h58m1-1H60v60h60V60Z"/><path class="cls-13" d="M179,61v58H121V61h58m1-1H120v60h60V60Z"/><path class="cls-13" d="M239,61v58H181V61h58m1-1H180v60h60V60Z"/><path class="cls-13" d="M299,61v58H241V61h58m1-1H240v60h60V60Z"/><path class="cls-13" d="M359,61v58H301V61h58m1-1H300v60h60V60Z"/><path class="cls-13" d="M419,61v58H361V61h58m1-1H360v60h60V60Z"/><path class="cls-13" d="M479,61v58H421V61h58m1-1H420v60h60V60Z"/><path class="cls-13" d="M539,61v58H481V61h58m1-1H480v60h60V60Z"/><path class="cls-13" d="M599,61v58H541V61h58m1-1H540v60h60V60Z"/><path class="cls-13" d="M659,61v58H601V61h58m1-1H600v60h60V60Z"/><path class="cls-13" d="M719,61v58H661V61h58m1-1H660v60h60V60Z"/><path class="cls-13" d="M779,61v58H721V61h58m1-1H720v60h60V60Z"/><path class="cls-13" d="M839,61v58H781V61h58m1-1H780v60h60V60Z"/><path class="cls-13" d="M899,61v58H841V61h58m1-1H840v60h60V60Z"/><path class="cls-13" d="M959,61v58H901V61h58m1-1H900v60h60V60Z"/><path class="cls-13" d="M1019,61v58H961V61h58m1-1H960v60h60V60Z"/><path class="cls-13" d="M1079,61v58h-58V61h58m1-1h-60v60h60V60Z"/><path class="cls-13" d="M1139,61v58h-58V61h58m1-1h-60v60h60V60Z"/><path class="cls-13" d="M1199,61v58h-58V61h58m1-1h-60v60h60V60Z"/><path class="cls-13" d="M1259,61v58h-58V61h58m1-1h-60v60h60V60Z"/><path class="cls-13" d="M1319,61v58h-58V61h58m1-1h-60v60h60V60Z"/><path class="cls-13" d="M1379,61v58h-58V61h58m1-1h-60v60h60V60Z"/><path class="cls-13" d="M1439,61v58h-58V61h58m1-1h-60v60h60V60Z"/><path class="cls-13" d="M1499,61v58h-58V61h58m1-1h-60v60h60V60Z"/><path class="cls-13" d="M1559,61v58h-58V61h58m1-1h-60v60h60V60Z"/><path class="cls-13" d="M1619,61v58h-58V61h58m1-1h-60v60h60V60Z"/><path class="cls-13" d="M1679,61v58h-58V61h58m1-1h-60v60h60V60Z"/><path class="cls-13" d="M1739,61v58h-58V61h58m1-1h-60v60h60V60Z"/><path class="cls-13" d="M1799,61v58h-58V61h58m1-1h-60v60h60V60Z"/><path class="cls-13" d="M1859,61v58h-58V61h58m1-1h-60v60h60V60Z"/><path class="cls-13" d="M1919,61v58h-58V61h58m1-1h-60v60h60V60Z"/><path class="cls-13" d="M59,121v58H1V121H59m1-1H0v60H60V120Z"/><path class="cls-13" d="M119,121v58H61V121h58m1-1H60v60h60V120Z"/><path class="cls-13" d="M179,121v58H121V121h58m1-1H120v60h60V120Z"/><path class="cls-13" d="M239,121v58H181V121h58m1-1H180v60h60V120Z"/><path class="cls-13" d="M299,121v58H241V121h58m1-1H240v60h60V120Z"/><path class="cls-13" d="M359,121v58H301V121h58m1-1H300v60h60V120Z"/><path class="cls-13" d="M419,121v58H361V121h58m1-1H360v60h60V120Z"/><path class="cls-13" d="M479,121v58H421V121h58m1-1H420v60h60V120Z"/><path class="cls-13" d="M539,121v58H481V121h58m1-1H480v60h60V120Z"/><path class="cls-13" d="M599,121v58H541V121h58m1-1H540v60h60V120Z"/><path class="cls-13" d="M659,121v58H601V121h58m1-1H600v60h60V120Z"/><path class="cls-13" d="M719,121v58H661V121h58m1-1H660v60h60V120Z"/><path class="cls-13" d="M779,121v58H721V121h58m1-1H720v60h60V120Z"/><path class="cls-13" d="M839,121v58H781V121h58m1-1H780v60h60V120Z"/><path class="cls-13" d="M899,121v58H841V121h58m1-1H840v60h60V120Z"/><path class="cls-13" d="M959,121v58H901V121h58m1-1H900v60h60V120Z"/><path class="cls-13" d="M1019,121v58H961V121h58m1-1H960v60h60V120Z"/><path class="cls-13" d="M1079,121v58h-58V121h58m1-1h-60v60h60V120Z"/><path class="cls-13" d="M1139,121v58h-58V121h58m1-1h-60v60h60V120Z"/><path class="cls-13" d="M1199,121v58h-58V121h58m1-1h-60v60h60V120Z"/><path class="cls-13" d="M1259,121v58h-58V121h58m1-1h-60v60h60V120Z"/><path class="cls-13" d="M1319,121v58h-58V121h58m1-1h-60v60h60V120Z"/><path class="cls-13" d="M1379,121v58h-58V121h58m1-1h-60v60h60V120Z"/><path class="cls-13" d="M1439,121v58h-58V121h58m1-1h-60v60h60V120Z"/><path class="cls-13" d="M1499,121v58h-58V121h58m1-1h-60v60h60V120Z"/><path class="cls-13" d="M1559,121v58h-58V121h58m1-1h-60v60h60V120Z"/><path class="cls-13" d="M1619,121v58h-58V121h58m1-1h-60v60h60V120Z"/><path class="cls-13" d="M1679,121v58h-58V121h58m1-1h-60v60h60V120Z"/><path class="cls-13" d="M1739,121v58h-58V121h58m1-1h-60v60h60V120Z"/><path class="cls-13" d="M1799,121v58h-58V121h58m1-1h-60v60h60V120Z"/><path class="cls-13" d="M1859,121v58h-58V121h58m1-1h-60v60h60V120Z"/><path class="cls-13" d="M1919,121v58h-58V121h58m1-1h-60v60h60V120Z"/><path class="cls-13" d="M59,181v58H1V181H59m1-1H0v60H60V180Z"/><path class="cls-13" d="M119,181v58H61V181h58m1-1H60v60h60V180Z"/><path class="cls-13" d="M179,181v58H121V181h58m1-1H120v60h60V180Z"/><path class="cls-13" d="M239,181v58H181V181h58m1-1H180v60h60V180Z"/><path class="cls-13" d="M299,181v58H241V181h58m1-1H240v60h60V180Z"/><path class="cls-13" d="M359,181v58H301V181h58m1-1H300v60h60V180Z"/><path class="cls-13" d="M419,181v58H361V181h58m1-1H360v60h60V180Z"/><path class="cls-13" d="M479,181v58H421V181h58m1-1H420v60h60V180Z"/><path class="cls-13" d="M539,181v58H481V181h58m1-1H480v60h60V180Z"/><path class="cls-13" d="M599,181v58H541V181h58m1-1H540v60h60V180Z"/><path class="cls-13" d="M659,181v58H601V181h58m1-1H600v60h60V180Z"/><path class="cls-13" d="M719,181v58H661V181h58m1-1H660v60h60V180Z"/><path class="cls-13" d="M779,181v58H721V181h58m1-1H720v60h60V180Z"/><path class="cls-13" d="M839,181v58H781V181h58m1-1H780v60h60V180Z"/><path class="cls-13" d="M899,181v58H841V181h58m1-1H840v60h60V180Z"/><path class="cls-13" d="M959,181v58H901V181h58m1-1H900v60h60V180Z"/><path class="cls-13" d="M1019,181v58H961V181h58m1-1H960v60h60V180Z"/><path class="cls-13" d="M1079,181v58h-58V181h58m1-1h-60v60h60V180Z"/><path class="cls-13" d="M1139,181v58h-58V181h58m1-1h-60v60h60V180Z"/><path class="cls-13" d="M1199,181v58h-58V181h58m1-1h-60v60h60V180Z"/><path class="cls-13" d="M1259,181v58h-58V181h58m1-1h-60v60h60V180Z"/><path class="cls-13" d="M1319,181v58h-58V181h58m1-1h-60v60h60V180Z"/><path class="cls-13" d="M1379,181v58h-58V181h58m1-1h-60v60h60V180Z"/><path class="cls-13" d="M1439,181v58h-58V181h58m1-1h-60v60h60V180Z"/><path class="cls-13" d="M1499,181v58h-58V181h58m1-1h-60v60h60V180Z"/><path class="cls-13" d="M1559,181v58h-58V181h58m1-1h-60v60h60V180Z"/><path class="cls-13" d="M1619,181v58h-58V181h58m1-1h-60v60h60V180Z"/><path class="cls-13" d="M1679,181v58h-58V181h58m1-1h-60v60h60V180Z"/><path class="cls-13" d="M1739,181v58h-58V181h58m1-1h-60v60h60V180Z"/><path class="cls-13" d="M1799,181v58h-58V181h58m1-1h-60v60h60V180Z"/><path class="cls-13" d="M1859,181v58h-58V181h58m1-1h-60v60h60V180Z"/><path class="cls-13" d="M1919,181v58h-58V181h58m1-1h-60v60h60V180Z"/><path class="cls-13" d="M59,241v58H1V241H59m1-1H0v60H60V240Z"/><path class="cls-13" d="M119,241v58H61V241h58m1-1H60v60h60V240Z"/><path class="cls-13" d="M179,241v58H121V241h58m1-1H120v60h60V240Z"/><path class="cls-13" d="M239,241v58H181V241h58m1-1H180v60h60V240Z"/><path class="cls-13" d="M299,241v58H241V241h58m1-1H240v60h60V240Z"/><path class="cls-13" d="M359,241v58H301V241h58m1-1H300v60h60V240Z"/><path class="cls-13" d="M419,241v58H361V241h58m1-1H360v60h60V240Z"/><path class="cls-13" d="M479,241v58H421V241h58m1-1H420v60h60V240Z"/><path class="cls-13" d="M539,241v58H481V241h58m1-1H480v60h60V240Z"/><path class="cls-13" d="M599,241v58H541V241h58m1-1H540v60h60V240Z"/><path class="cls-13" d="M659,241v58H601V241h58m1-1H600v60h60V240Z"/><path class="cls-13" d="M719,241v58H661V241h58m1-1H660v60h60V240Z"/><path class="cls-13" d="M779,241v58H721V241h58m1-1H720v60h60V240Z"/><path class="cls-13" d="M839,241v58H781V241h58m1-1H780v60h60V240Z"/><path class="cls-13" d="M899,241v58H841V241h58m1-1H840v60h60V240Z"/><path class="cls-13" d="M959,241v58H901V241h58m1-1H900v60h60V240Z"/><path class="cls-13" d="M1019,241v58H961V241h58m1-1H960v60h60V240Z"/><path class="cls-13" d="M1079,241v58h-58V241h58m1-1h-60v60h60V240Z"/><path class="cls-13" d="M1139,241v58h-58V241h58m1-1h-60v60h60V240Z"/><path class="cls-13" d="M1199,241v58h-58V241h58m1-1h-60v60h60V240Z"/><path class="cls-13" d="M1259,241v58h-58V241h58m1-1h-60v60h60V240Z"/><path class="cls-13" d="M1319,241v58h-58V241h58m1-1h-60v60h60V240Z"/><path class="cls-13" d="M1379,241v58h-58V241h58m1-1h-60v60h60V240Z"/><path class="cls-13" d="M1439,241v58h-58V241h58m1-1h-60v60h60V240Z"/><path class="cls-13" d="M1499,241v58h-58V241h58m1-1h-60v60h60V240Z"/><path class="cls-13" d="M1559,241v58h-58V241h58m1-1h-60v60h60V240Z"/><path class="cls-13" d="M1619,241v58h-58V241h58m1-1h-60v60h60V240Z"/><path class="cls-13" d="M1679,241v58h-58V241h58m1-1h-60v60h60V240Z"/><path class="cls-13" d="M1739,241v58h-58V241h58m1-1h-60v60h60V240Z"/><path class="cls-13" d="M1799,241v58h-58V241h58m1-1h-60v60h60V240Z"/><path class="cls-13" d="M1859,241v58h-58V241h58m1-1h-60v60h60V240Z"/><path class="cls-13" d="M1919,241v58h-58V241h58m1-1h-60v60h60V240Z"/><path class="cls-13" d="M59,301v58H1V301H59m1-1H0v60H60V300Z"/><path class="cls-13" d="M119,301v58H61V301h58m1-1H60v60h60V300Z"/><path class="cls-13" d="M179,301v58H121V301h58m1-1H120v60h60V300Z"/><path class="cls-13" d="M239,301v58H181V301h58m1-1H180v60h60V300Z"/><path class="cls-13" d="M299,301v58H241V301h58m1-1H240v60h60V300Z"/><path class="cls-13" d="M359,301v58H301V301h58m1-1H300v60h60V300Z"/><path class="cls-13" d="M419,301v58H361V301h58m1-1H360v60h60V300Z"/><path class="cls-13" d="M479,301v58H421V301h58m1-1H420v60h60V300Z"/><path class="cls-13" d="M539,301v58H481V301h58m1-1H480v60h60V300Z"/><path class="cls-13" d="M599,301v58H541V301h58m1-1H540v60h60V300Z"/><path class="cls-13" d="M659,301v58H601V301h58m1-1H600v60h60V300Z"/><path class="cls-13" d="M719,301v58H661V301h58m1-1H660v60h60V300Z"/><path class="cls-13" d="M779,301v58H721V301h58m1-1H720v60h60V300Z"/><path class="cls-13" d="M839,301v58H781V301h58m1-1H780v60h60V300Z"/><path class="cls-13" d="M899,301v58H841V301h58m1-1H840v60h60V300Z"/><path class="cls-13" d="M959,301v58H901V301h58m1-1H900v60h60V300Z"/><path class="cls-13" d="M1019,301v58H961V301h58m1-1H960v60h60V300Z"/><path class="cls-13" d="M1079,301v58h-58V301h58m1-1h-60v60h60V300Z"/><path class="cls-13" d="M1139,301v58h-58V301h58m1-1h-60v60h60V300Z"/><path class="cls-13" d="M1199,301v58h-58V301h58m1-1h-60v60h60V300Z"/><path class="cls-13" d="M1259,301v58h-58V301h58m1-1h-60v60h60V300Z"/><path class="cls-13" d="M1319,301v58h-58V301h58m1-1h-60v60h60V300Z"/><path class="cls-13" d="M1379,301v58h-58V301h58m1-1h-60v60h60V300Z"/><path class="cls-13" d="M1439,301v58h-58V301h58m1-1h-60v60h60V300Z"/><path class="cls-13" d="M1499,301v58h-58V301h58m1-1h-60v60h60V300Z"/><path class="cls-13" d="M1559,301v58h-58V301h58m1-1h-60v60h60V300Z"/><path class="cls-13" d="M1619,301v58h-58V301h58m1-1h-60v60h60V300Z"/><path class="cls-13" d="M1679,301v58h-58V301h58m1-1h-60v60h60V300Z"/><path class="cls-13" d="M1739,301v58h-58V301h58m1-1h-60v60h60V300Z"/><path class="cls-13" d="M1799,301v58h-58V301h58m1-1h-60v60h60V300Z"/><path class="cls-13" d="M1859,301v58h-58V301h58m1-1h-60v60h60V300Z"/><path class="cls-13" d="M1919,301v58h-58V301h58m1-1h-60v60h60V300Z"/><path class="cls-13" d="M59,361v58H1V361H59m1-1H0v60H60V360Z"/><path class="cls-13" d="M119,361v58H61V361h58m1-1H60v60h60V360Z"/><path class="cls-13" d="M179,361v58H121V361h58m1-1H120v60h60V360Z"/><path class="cls-13" d="M239,361v58H181V361h58m1-1H180v60h60V360Z"/><path class="cls-13" d="M299,361v58H241V361h58m1-1H240v60h60V360Z"/><path class="cls-13" d="M359,361v58H301V361h58m1-1H300v60h60V360Z"/><path class="cls-13" d="M419,361v58H361V361h58m1-1H360v60h60V360Z"/><path class="cls-13" d="M479,361v58H421V361h58m1-1H420v60h60V360Z"/><path class="cls-13" d="M539,361v58H481V361h58m1-1H480v60h60V360Z"/><path class="cls-13" d="M599,361v58H541V361h58m1-1H540v60h60V360Z"/><path class="cls-13" d="M659,361v58H601V361h58m1-1H600v60h60V360Z"/><path class="cls-13" d="M719,361v58H661V361h58m1-1H660v60h60V360Z"/><path class="cls-13" d="M779,361v58H721V361h58m1-1H720v60h60V360Z"/><path class="cls-13" d="M839,361v58H781V361h58m1-1H780v60h60V360Z"/><path class="cls-13" d="M899,361v58H841V361h58m1-1H840v60h60V360Z"/><path class="cls-13" d="M959,361v58H901V361h58m1-1H900v60h60V360Z"/><path class="cls-13" d="M1019,361v58H961V361h58m1-1H960v60h60V360Z"/><path class="cls-13" d="M1079,361v58h-58V361h58m1-1h-60v60h60V360Z"/><path class="cls-13" d="M1139,361v58h-58V361h58m1-1h-60v60h60V360Z"/><path class="cls-13" d="M1199,361v58h-58V361h58m1-1h-60v60h60V360Z"/><path class="cls-13" d="M1259,361v58h-58V361h58m1-1h-60v60h60V360Z"/><path class="cls-13" d="M1319,361v58h-58V361h58m1-1h-60v60h60V360Z"/><path class="cls-13" d="M1379,361v58h-58V361h58m1-1h-60v60h60V360Z"/><path class="cls-13" d="M1439,361v58h-58V361h58m1-1h-60v60h60V360Z"/><path class="cls-13" d="M1499,361v58h-58V361h58m1-1h-60v60h60V360Z"/><path class="cls-13" d="M1559,361v58h-58V361h58m1-1h-60v60h60V360Z"/><path class="cls-13" d="M1619,361v58h-58V361h58m1-1h-60v60h60V360Z"/><path class="cls-13" d="M1679,361v58h-58V361h58m1-1h-60v60h60V360Z"/><path class="cls-13" d="M1739,361v58h-58V361h58m1-1h-60v60h60V360Z"/><path class="cls-13" d="M1799,361v58h-58V361h58m1-1h-60v60h60V360Z"/><path class="cls-13" d="M1859,361v58h-58V361h58m1-1h-60v60h60V360Z"/><path class="cls-13" d="M1919,361v58h-58V361h58m1-1h-60v60h60V360Z"/><path class="cls-13" d="M59,421v58H1V421H59m1-1H0v60H60V420Z"/><path class="cls-13" d="M119,421v58H61V421h58m1-1H60v60h60V420Z"/><path class="cls-13" d="M179,421v58H121V421h58m1-1H120v60h60V420Z"/><path class="cls-13" d="M239,421v58H181V421h58m1-1H180v60h60V420Z"/><path class="cls-13" d="M299,421v58H241V421h58m1-1H240v60h60V420Z"/><path class="cls-13" d="M359,421v58H301V421h58m1-1H300v60h60V420Z"/><path class="cls-13" d="M419,421v58H361V421h58m1-1H360v60h60V420Z"/><path class="cls-13" d="M479,421v58H421V421h58m1-1H420v60h60V420Z"/><path class="cls-13" d="M539,421v58H481V421h58m1-1H480v60h60V420Z"/><path class="cls-13" d="M599,421v58H541V421h58m1-1H540v60h60V420Z"/><path class="cls-13" d="M659,421v58H601V421h58m1-1H600v60h60V420Z"/><path class="cls-13" d="M719,421v58H661V421h58m1-1H660v60h60V420Z"/><path class="cls-13" d="M779,421v58H721V421h58m1-1H720v60h60V420Z"/><path class="cls-13" d="M839,421v58H781V421h58m1-1H780v60h60V420Z"/><path class="cls-13" d="M899,421v58H841V421h58m1-1H840v60h60V420Z"/><path class="cls-13" d="M959,421v58H901V421h58m1-1H900v60h60V420Z"/><path class="cls-13" d="M1019,421v58H961V421h58m1-1H960v60h60V420Z"/><path class="cls-13" d="M1079,421v58h-58V421h58m1-1h-60v60h60V420Z"/><path class="cls-13" d="M1139,421v58h-58V421h58m1-1h-60v60h60V420Z"/><path class="cls-13" d="M1199,421v58h-58V421h58m1-1h-60v60h60V420Z"/><path class="cls-13" d="M1259,421v58h-58V421h58m1-1h-60v60h60V420Z"/><path class="cls-13" d="M1319,421v58h-58V421h58m1-1h-60v60h60V420Z"/><path class="cls-13" d="M1379,421v58h-58V421h58m1-1h-60v60h60V420Z"/><path class="cls-13" d="M1439,421v58h-58V421h58m1-1h-60v60h60V420Z"/><path class="cls-13" d="M1499,421v58h-58V421h58m1-1h-60v60h60V420Z"/><path class="cls-13" d="M1559,421v58h-58V421h58m1-1h-60v60h60V420Z"/><path class="cls-13" d="M1619,421v58h-58V421h58m1-1h-60v60h60V420Z"/><path class="cls-13" d="M1679,421v58h-58V421h58m1-1h-60v60h60V420Z"/><path class="cls-13" d="M1739,421v58h-58V421h58m1-1h-60v60h60V420Z"/><path class="cls-13" d="M1799,421v58h-58V421h58m1-1h-60v60h60V420Z"/><path class="cls-13" d="M1859,421v58h-58V421h58m1-1h-60v60h60V420Z"/><path class="cls-13" d="M1919,421v58h-58V421h58m1-1h-60v60h60V420Z"/><path class="cls-13" d="M59,481v58H1V481H59m1-1H0v60H60V480Z"/><path class="cls-13" d="M119,481v58H61V481h58m1-1H60v60h60V480Z"/><path class="cls-13" d="M179,481v58H121V481h58m1-1H120v60h60V480Z"/><path class="cls-13" d="M239,481v58H181V481h58m1-1H180v60h60V480Z"/><path class="cls-13" d="M299,481v58H241V481h58m1-1H240v60h60V480Z"/><path class="cls-13" d="M359,481v58H301V481h58m1-1H300v60h60V480Z"/><path class="cls-13" d="M419,481v58H361V481h58m1-1H360v60h60V480Z"/><path class="cls-13" d="M479,481v58H421V481h58m1-1H420v60h60V480Z"/><path class="cls-13" d="M539,481v58H481V481h58m1-1H480v60h60V480Z"/><path class="cls-13" d="M599,481v58H541V481h58m1-1H540v60h60V480Z"/><path class="cls-13" d="M659,481v58H601V481h58m1-1H600v60h60V480Z"/><path class="cls-13" d="M719,481v58H661V481h58m1-1H660v60h60V480Z"/><path class="cls-13" d="M779,481v58H721V481h58m1-1H720v60h60V480Z"/><path class="cls-13" d="M839,481v58H781V481h58m1-1H780v60h60V480Z"/><path class="cls-13" d="M899,481v58H841V481h58m1-1H840v60h60V480Z"/><path class="cls-13" d="M959,481v58H901V481h58m1-1H900v60h60V480Z"/><path class="cls-13" d="M1019,481v58H961V481h58m1-1H960v60h60V480Z"/><path class="cls-13" d="M1079,481v58h-58V481h58m1-1h-60v60h60V480Z"/><path class="cls-13" d="M1139,481v58h-58V481h58m1-1h-60v60h60V480Z"/><path class="cls-13" d="M1199,481v58h-58V481h58m1-1h-60v60h60V480Z"/><path class="cls-13" d="M1259,481v58h-58V481h58m1-1h-60v60h60V480Z"/><path class="cls-13" d="M1319,481v58h-58V481h58m1-1h-60v60h60V480Z"/><path class="cls-13" d="M1379,481v58h-58V481h58m1-1h-60v60h60V480Z"/><path class="cls-13" d="M1439,481v58h-58V481h58m1-1h-60v60h60V480Z"/><path class="cls-13" d="M1499,481v58h-58V481h58m1-1h-60v60h60V480Z"/><path class="cls-13" d="M1559,481v58h-58V481h58m1-1h-60v60h60V480Z"/><path class="cls-13" d="M1619,481v58h-58V481h58m1-1h-60v60h60V480Z"/><path class="cls-13" d="M1679,481v58h-58V481h58m1-1h-60v60h60V480Z"/><path class="cls-13" d="M1739,481v58h-58V481h58m1-1h-60v60h60V480Z"/><path class="cls-13" d="M1799,481v58h-58V481h58m1-1h-60v60h60V480Z"/><path class="cls-13" d="M1859,481v58h-58V481h58m1-1h-60v60h60V480Z"/><path class="cls-13" d="M1919,481v58h-58V481h58m1-1h-60v60h60V480Z"/><path class="cls-13" d="M59,541v58H1V541H59m1-1H0v60H60V540Z"/><path class="cls-13" d="M119,541v58H61V541h58m1-1H60v60h60V540Z"/><path class="cls-13" d="M179,541v58H121V541h58m1-1H120v60h60V540Z"/><path class="cls-13" d="M239,541v58H181V541h58m1-1H180v60h60V540Z"/><path class="cls-13" d="M299,541v58H241V541h58m1-1H240v60h60V540Z"/><path class="cls-13" d="M359,541v58H301V541h58m1-1H300v60h60V540Z"/><path class="cls-13" d="M419,541v58H361V541h58m1-1H360v60h60V540Z"/><path class="cls-13" d="M479,541v58H421V541h58m1-1H420v60h60V540Z"/><path class="cls-13" d="M539,541v58H481V541h58m1-1H480v60h60V540Z"/><path class="cls-13" d="M599,541v58H541V541h58m1-1H540v60h60V540Z"/><path class="cls-13" d="M659,541v58H601V541h58m1-1H600v60h60V540Z"/><path class="cls-13" d="M719,541v58H661V541h58m1-1H660v60h60V540Z"/><path class="cls-13" d="M779,541v58H721V541h58m1-1H720v60h60V540Z"/><path class="cls-13" d="M839,541v58H781V541h58m1-1H780v60h60V540Z"/><path class="cls-13" d="M899,541v58H841V541h58m1-1H840v60h60V540Z"/><path class="cls-13" d="M959,541v58H901V541h58m1-1H900v60h60V540Z"/><path class="cls-13" d="M1019,541v58H961V541h58m1-1H960v60h60V540Z"/><path class="cls-13" d="M1079,541v58h-58V541h58m1-1h-60v60h60V540Z"/><path class="cls-13" d="M1139,541v58h-58V541h58m1-1h-60v60h60V540Z"/><path class="cls-13" d="M1199,541v58h-58V541h58m1-1h-60v60h60V540Z"/><path class="cls-13" d="M1259,541v58h-58V541h58m1-1h-60v60h60V540Z"/><path class="cls-13" d="M1319,541v58h-58V541h58m1-1h-60v60h60V540Z"/><path class="cls-13" d="M1379,541v58h-58V541h58m1-1h-60v60h60V540Z"/><path class="cls-13" d="M1439,541v58h-58V541h58m1-1h-60v60h60V540Z"/><path class="cls-13" d="M1499,541v58h-58V541h58m1-1h-60v60h60V540Z"/><path class="cls-13" d="M1559,541v58h-58V541h58m1-1h-60v60h60V540Z"/><path class="cls-13" d="M1619,541v58h-58V541h58m1-1h-60v60h60V540Z"/><path class="cls-13" d="M1679,541v58h-58V541h58m1-1h-60v60h60V540Z"/><path class="cls-13" d="M1739,541v58h-58V541h58m1-1h-60v60h60V540Z"/><path class="cls-13" d="M1799,541v58h-58V541h58m1-1h-60v60h60V540Z"/><path class="cls-13" d="M1859,541v58h-58V541h58m1-1h-60v60h60V540Z"/><path class="cls-13" d="M1919,541v58h-58V541h58m1-1h-60v60h60V540Z"/><path class="cls-13" d="M59,601v58H1V601H59m1-1H0v60H60V600Z"/><path class="cls-13" d="M119,601v58H61V601h58m1-1H60v60h60V600Z"/><path class="cls-13" d="M179,601v58H121V601h58m1-1H120v60h60V600Z"/><path class="cls-13" d="M239,601v58H181V601h58m1-1H180v60h60V600Z"/><path class="cls-13" d="M299,601v58H241V601h58m1-1H240v60h60V600Z"/><path class="cls-13" d="M359,601v58H301V601h58m1-1H300v60h60V600Z"/><path class="cls-13" d="M419,601v58H361V601h58m1-1H360v60h60V600Z"/><path class="cls-13" d="M479,601v58H421V601h58m1-1H420v60h60V600Z"/><path class="cls-13" d="M539,601v58H481V601h58m1-1H480v60h60V600Z"/><path class="cls-13" d="M599,601v58H541V601h58m1-1H540v60h60V600Z"/><path class="cls-13" d="M659,601v58H601V601h58m1-1H600v60h60V600Z"/><path class="cls-13" d="M719,601v58H661V601h58m1-1H660v60h60V600Z"/><path class="cls-13" d="M779,601v58H721V601h58m1-1H720v60h60V600Z"/><path class="cls-13" d="M839,601v58H781V601h58m1-1H780v60h60V600Z"/><path class="cls-13" d="M899,601v58H841V601h58m1-1H840v60h60V600Z"/><path class="cls-13" d="M959,601v58H901V601h58m1-1H900v60h60V600Z"/><path class="cls-13" d="M1019,601v58H961V601h58m1-1H960v60h60V600Z"/><path class="cls-13" d="M1079,601v58h-58V601h58m1-1h-60v60h60V600Z"/><path class="cls-13" d="M1139,601v58h-58V601h58m1-1h-60v60h60V600Z"/><path class="cls-13" d="M1199,601v58h-58V601h58m1-1h-60v60h60V600Z"/><path class="cls-13" d="M1259,601v58h-58V601h58m1-1h-60v60h60V600Z"/><path class="cls-13" d="M1319,601v58h-58V601h58m1-1h-60v60h60V600Z"/><path class="cls-13" d="M1379,601v58h-58V601h58m1-1h-60v60h60V600Z"/><path class="cls-13" d="M1439,601v58h-58V601h58m1-1h-60v60h60V600Z"/><path class="cls-13" d="M1499,601v58h-58V601h58m1-1h-60v60h60V600Z"/><path class="cls-13" d="M1559,601v58h-58V601h58m1-1h-60v60h60V600Z"/><path class="cls-13" d="M1619,601v58h-58V601h58m1-1h-60v60h60V600Z"/><path class="cls-13" d="M1679,601v58h-58V601h58m1-1h-60v60h60V600Z"/><path class="cls-13" d="M1739,601v58h-58V601h58m1-1h-60v60h60V600Z"/><path class="cls-13" d="M1799,601v58h-58V601h58m1-1h-60v60h60V600Z"/><path class="cls-13" d="M1859,601v58h-58V601h58m1-1h-60v60h60V600Z"/><path class="cls-13" d="M1919,601v58h-58V601h58m1-1h-60v60h60V600Z"/><path class="cls-13" d="M59,661v58H1V661H59m1-1H0v60H60V660Z"/><path class="cls-13" d="M119,661v58H61V661h58m1-1H60v60h60V660Z"/><path class="cls-13" d="M179,661v58H121V661h58m1-1H120v60h60V660Z"/><path class="cls-13" d="M239,661v58H181V661h58m1-1H180v60h60V660Z"/><path class="cls-13" d="M299,661v58H241V661h58m1-1H240v60h60V660Z"/><path class="cls-13" d="M359,661v58H301V661h58m1-1H300v60h60V660Z"/><path class="cls-13" d="M419,661v58H361V661h58m1-1H360v60h60V660Z"/><path class="cls-13" d="M479,661v58H421V661h58m1-1H420v60h60V660Z"/><path class="cls-13" d="M539,661v58H481V661h58m1-1H480v60h60V660Z"/><path class="cls-13" d="M599,661v58H541V661h58m1-1H540v60h60V660Z"/><path class="cls-13" d="M659,661v58H601V661h58m1-1H600v60h60V660Z"/><path class="cls-13" d="M719,661v58H661V661h58m1-1H660v60h60V660Z"/><path class="cls-13" d="M779,661v58H721V661h58m1-1H720v60h60V660Z"/><path class="cls-13" d="M839,661v58H781V661h58m1-1H780v60h60V660Z"/><path class="cls-13" d="M899,661v58H841V661h58m1-1H840v60h60V660Z"/><path class="cls-13" d="M959,661v58H901V661h58m1-1H900v60h60V660Z"/><path class="cls-13" d="M1019,661v58H961V661h58m1-1H960v60h60V660Z"/><path class="cls-13" d="M1079,661v58h-58V661h58m1-1h-60v60h60V660Z"/><path class="cls-13" d="M1139,661v58h-58V661h58m1-1h-60v60h60V660Z"/><path class="cls-13" d="M1199,661v58h-58V661h58m1-1h-60v60h60V660Z"/><path class="cls-13" d="M1259,661v58h-58V661h58m1-1h-60v60h60V660Z"/><path class="cls-13" d="M1319,661v58h-58V661h58m1-1h-60v60h60V660Z"/><path class="cls-13" d="M1379,661v58h-58V661h58m1-1h-60v60h60V660Z"/><path class="cls-13" d="M1439,661v58h-58V661h58m1-1h-60v60h60V660Z"/><path class="cls-13" d="M1499,661v58h-58V661h58m1-1h-60v60h60V660Z"/><path class="cls-13" d="M1559,661v58h-58V661h58m1-1h-60v60h60V660Z"/><path class="cls-13" d="M1619,661v58h-58V661h58m1-1h-60v60h60V660Z"/><path class="cls-13" d="M1679,661v58h-58V661h58m1-1h-60v60h60V660Z"/><path class="cls-13" d="M1739,661v58h-58V661h58m1-1h-60v60h60V660Z"/><path class="cls-13" d="M1799,661v58h-58V661h58m1-1h-60v60h60V660Z"/><path class="cls-13" d="M1859,661v58h-58V661h58m1-1h-60v60h60V660Z"/><path class="cls-13" d="M1919,661v58h-58V661h58m1-1h-60v60h60V660Z"/><path class="cls-13" d="M59,721v58H1V721H59m1-1H0v60H60V720Z"/><path class="cls-13" d="M119,721v58H61V721h58m1-1H60v60h60V720Z"/><path class="cls-13" d="M179,721v58H121V721h58m1-1H120v60h60V720Z"/><path class="cls-13" d="M239,721v58H181V721h58m1-1H180v60h60V720Z"/><path class="cls-13" d="M299,721v58H241V721h58m1-1H240v60h60V720Z"/><path class="cls-13" d="M359,721v58H301V721h58m1-1H300v60h60V720Z"/><path class="cls-13" d="M419,721v58H361V721h58m1-1H360v60h60V720Z"/><path class="cls-13" d="M479,721v58H421V721h58m1-1H420v60h60V720Z"/><path class="cls-13" d="M539,721v58H481V721h58m1-1H480v60h60V720Z"/><path class="cls-13" d="M599,721v58H541V721h58m1-1H540v60h60V720Z"/><path class="cls-13" d="M659,721v58H601V721h58m1-1H600v60h60V720Z"/><path class="cls-13" d="M719,721v58H661V721h58m1-1H660v60h60V720Z"/><path class="cls-13" d="M779,721v58H721V721h58m1-1H720v60h60V720Z"/><path class="cls-13" d="M839,721v58H781V721h58m1-1H780v60h60V720Z"/><path class="cls-13" d="M899,721v58H841V721h58m1-1H840v60h60V720Z"/><path class="cls-13" d="M959,721v58H901V721h58m1-1H900v60h60V720Z"/><path class="cls-13" d="M1019,721v58H961V721h58m1-1H960v60h60V720Z"/><path class="cls-13" d="M1079,721v58h-58V721h58m1-1h-60v60h60V720Z"/><path class="cls-13" d="M1139,721v58h-58V721h58m1-1h-60v60h60V720Z"/><path class="cls-13" d="M1199,721v58h-58V721h58m1-1h-60v60h60V720Z"/><path class="cls-13" d="M1259,721v58h-58V721h58m1-1h-60v60h60V720Z"/><path class="cls-13" d="M1319,721v58h-58V721h58m1-1h-60v60h60V720Z"/><path class="cls-13" d="M1379,721v58h-58V721h58m1-1h-60v60h60V720Z"/><path class="cls-13" d="M1439,721v58h-58V721h58m1-1h-60v60h60V720Z"/><path class="cls-13" d="M1499,721v58h-58V721h58m1-1h-60v60h60V720Z"/><path class="cls-13" d="M1559,721v58h-58V721h58m1-1h-60v60h60V720Z"/><path class="cls-13" d="M1619,721v58h-58V721h58m1-1h-60v60h60V720Z"/><path class="cls-13" d="M1679,721v58h-58V721h58m1-1h-60v60h60V720Z"/><path class="cls-13" d="M1739,721v58h-58V721h58m1-1h-60v60h60V720Z"/><path class="cls-13" d="M1799,721v58h-58V721h58m1-1h-60v60h60V720Z"/><path class="cls-13" d="M1859,721v58h-58V721h58m1-1h-60v60h60V720Z"/><path class="cls-13" d="M1919,721v58h-58V721h58m1-1h-60v60h60V720Z"/><path class="cls-13" d="M59,781v58H1V781H59m1-1H0v60H60V780Z"/><path class="cls-13" d="M119,781v58H61V781h58m1-1H60v60h60V780Z"/><path class="cls-13" d="M179,781v58H121V781h58m1-1H120v60h60V780Z"/><path class="cls-13" d="M239,781v58H181V781h58m1-1H180v60h60V780Z"/><path class="cls-13" d="M299,781v58H241V781h58m1-1H240v60h60V780Z"/><path class="cls-13" d="M359,781v58H301V781h58m1-1H300v60h60V780Z"/><path class="cls-13" d="M419,781v58H361V781h58m1-1H360v60h60V780Z"/><path class="cls-13" d="M479,781v58H421V781h58m1-1H420v60h60V780Z"/><path class="cls-13" d="M539,781v58H481V781h58m1-1H480v60h60V780Z"/><path class="cls-13" d="M599,781v58H541V781h58m1-1H540v60h60V780Z"/><path class="cls-13" d="M659,781v58H601V781h58m1-1H600v60h60V780Z"/><path class="cls-13" d="M719,781v58H661V781h58m1-1H660v60h60V780Z"/><path class="cls-13" d="M779,781v58H721V781h58m1-1H720v60h60V780Z"/><path class="cls-13" d="M839,781v58H781V781h58m1-1H780v60h60V780Z"/><path class="cls-13" d="M899,781v58H841V781h58m1-1H840v60h60V780Z"/><path class="cls-13" d="M959,781v58H901V781h58m1-1H900v60h60V780Z"/><path class="cls-13" d="M1019,781v58H961V781h58m1-1H960v60h60V780Z"/><path class="cls-13" d="M1079,781v58h-58V781h58m1-1h-60v60h60V780Z"/><path class="cls-13" d="M1139,781v58h-58V781h58m1-1h-60v60h60V780Z"/><path class="cls-13" d="M1199,781v58h-58V781h58m1-1h-60v60h60V780Z"/><path class="cls-13" d="M1259,781v58h-58V781h58m1-1h-60v60h60V780Z"/><path class="cls-13" d="M1319,781v58h-58V781h58m1-1h-60v60h60V780Z"/><path class="cls-13" d="M1379,781v58h-58V781h58m1-1h-60v60h60V780Z"/><path class="cls-13" d="M1439,781v58h-58V781h58m1-1h-60v60h60V780Z"/><path class="cls-13" d="M1499,781v58h-58V781h58m1-1h-60v60h60V780Z"/><path class="cls-13" d="M1559,781v58h-58V781h58m1-1h-60v60h60V780Z"/><path class="cls-13" d="M1619,781v58h-58V781h58m1-1h-60v60h60V780Z"/><path class="cls-13" d="M1679,781v58h-58V781h58m1-1h-60v60h60V780Z"/><path class="cls-13" d="M1739,781v58h-58V781h58m1-1h-60v60h60V780Z"/><path class="cls-13" d="M1799,781v58h-58V781h58m1-1h-60v60h60V780Z"/><path class="cls-13" d="M1859,781v58h-58V781h58m1-1h-60v60h60V780Z"/><path class="cls-13" d="M1919,781v58h-58V781h58m1-1h-60v60h60V780Z"/><path class="cls-13" d="M59,841v58H1V841H59m1-1H0v60H60V840Z"/><path class="cls-13" d="M119,841v58H61V841h58m1-1H60v60h60V840Z"/><path class="cls-13" d="M179,841v58H121V841h58m1-1H120v60h60V840Z"/><path class="cls-13" d="M239,841v58H181V841h58m1-1H180v60h60V840Z"/><path class="cls-13" d="M299,841v58H241V841h58m1-1H240v60h60V840Z"/><path class="cls-13" d="M359,841v58H301V841h58m1-1H300v60h60V840Z"/><path class="cls-13" d="M419,841v58H361V841h58m1-1H360v60h60V840Z"/><path class="cls-13" d="M479,841v58H421V841h58m1-1H420v60h60V840Z"/><path class="cls-13" d="M539,841v58H481V841h58m1-1H480v60h60V840Z"/><path class="cls-13" d="M599,841v58H541V841h58m1-1H540v60h60V840Z"/><path class="cls-13" d="M659,841v58H601V841h58m1-1H600v60h60V840Z"/><path class="cls-13" d="M719,841v58H661V841h58m1-1H660v60h60V840Z"/><path class="cls-13" d="M779,841v58H721V841h58m1-1H720v60h60V840Z"/><path class="cls-13" d="M839,841v58H781V841h58m1-1H780v60h60V840Z"/><path class="cls-13" d="M899,841v58H841V841h58m1-1H840v60h60V840Z"/><path class="cls-13" d="M959,841v58H901V841h58m1-1H900v60h60V840Z"/><path class="cls-13" d="M1019,841v58H961V841h58m1-1H960v60h60V840Z"/><path class="cls-13" d="M1079,841v58h-58V841h58m1-1h-60v60h60V840Z"/><path class="cls-13" d="M1139,841v58h-58V841h58m1-1h-60v60h60V840Z"/><path class="cls-13" d="M1199,841v58h-58V841h58m1-1h-60v60h60V840Z"/><path class="cls-13" d="M1259,841v58h-58V841h58m1-1h-60v60h60V840Z"/><path class="cls-13" d="M1319,841v58h-58V841h58m1-1h-60v60h60V840Z"/><path class="cls-13" d="M1379,841v58h-58V841h58m1-1h-60v60h60V840Z"/><path class="cls-13" d="M1439,841v58h-58V841h58m1-1h-60v60h60V840Z"/><path class="cls-13" d="M1499,841v58h-58V841h58m1-1h-60v60h60V840Z"/><path class="cls-13" d="M1559,841v58h-58V841h58m1-1h-60v60h60V840Z"/><path class="cls-13" d="M1619,841v58h-58V841h58m1-1h-60v60h60V840Z"/><path class="cls-13" d="M1679,841v58h-58V841h58m1-1h-60v60h60V840Z"/><path class="cls-13" d="M1739,841v58h-58V841h58m1-1h-60v60h60V840Z"/><path class="cls-13" d="M1799,841v58h-58V841h58m1-1h-60v60h60V840Z"/><path class="cls-13" d="M1859,841v58h-58V841h58m1-1h-60v60h60V840Z"/><path class="cls-13" d="M1919,841v58h-58V841h58m1-1h-60v60h60V840Z"/><path class="cls-13" d="M59,901v58H1V901H59m1-1H0v60H60V900Z"/><path class="cls-13" d="M119,901v58H61V901h58m1-1H60v60h60V900Z"/><path class="cls-13" d="M179,901v58H121V901h58m1-1H120v60h60V900Z"/><path class="cls-13" d="M239,901v58H181V901h58m1-1H180v60h60V900Z"/><path class="cls-13" d="M299,901v58H241V901h58m1-1H240v60h60V900Z"/><path class="cls-13" d="M359,901v58H301V901h58m1-1H300v60h60V900Z"/><path class="cls-13" d="M419,901v58H361V901h58m1-1H360v60h60V900Z"/><path class="cls-13" d="M479,901v58H421V901h58m1-1H420v60h60V900Z"/><path class="cls-13" d="M539,901v58H481V901h58m1-1H480v60h60V900Z"/><path class="cls-13" d="M599,901v58H541V901h58m1-1H540v60h60V900Z"/><path class="cls-13" d="M659,901v58H601V901h58m1-1H600v60h60V900Z"/><path class="cls-13" d="M719,901v58H661V901h58m1-1H660v60h60V900Z"/><path class="cls-13" d="M779,901v58H721V901h58m1-1H720v60h60V900Z"/><path class="cls-13" d="M839,901v58H781V901h58m1-1H780v60h60V900Z"/><path class="cls-13" d="M899,901v58H841V901h58m1-1H840v60h60V900Z"/><path class="cls-13" d="M959,901v58H901V901h58m1-1H900v60h60V900Z"/><path class="cls-13" d="M1019,901v58H961V901h58m1-1H960v60h60V900Z"/><path class="cls-13" d="M1079,901v58h-58V901h58m1-1h-60v60h60V900Z"/><path class="cls-13" d="M1139,901v58h-58V901h58m1-1h-60v60h60V900Z"/><path class="cls-13" d="M1199,901v58h-58V901h58m1-1h-60v60h60V900Z"/><path class="cls-13" d="M1259,901v58h-58V901h58m1-1h-60v60h60V900Z"/><path class="cls-13" d="M1319,901v58h-58V901h58m1-1h-60v60h60V900Z"/><path class="cls-13" d="M1379,901v58h-58V901h58m1-1h-60v60h60V900Z"/><path class="cls-13" d="M1439,901v58h-58V901h58m1-1h-60v60h60V900Z"/><path class="cls-13" d="M1499,901v58h-58V901h58m1-1h-60v60h60V900Z"/><path class="cls-13" d="M1559,901v58h-58V901h58m1-1h-60v60h60V900Z"/><path class="cls-13" d="M1619,901v58h-58V901h58m1-1h-60v60h60V900Z"/><path class="cls-13" d="M1679,901v58h-58V901h58m1-1h-60v60h60V900Z"/><path class="cls-13" d="M1739,901v58h-58V901h58m1-1h-60v60h60V900Z"/><path class="cls-13" d="M1799,901v58h-58V901h58m1-1h-60v60h60V900Z"/><path class="cls-13" d="M1859,901v58h-58V901h58m1-1h-60v60h60V900Z"/><path class="cls-13" d="M1919,901v58h-58V901h58m1-1h-60v60h60V900Z"/><path class="cls-13" d="M59,961v58H1V961H59m1-1H0v60H60V960Z"/><path class="cls-13" d="M119,961v58H61V961h58m1-1H60v60h60V960Z"/><path class="cls-13" d="M179,961v58H121V961h58m1-1H120v60h60V960Z"/><path class="cls-13" d="M239,961v58H181V961h58m1-1H180v60h60V960Z"/><path class="cls-13" d="M299,961v58H241V961h58m1-1H240v60h60V960Z"/><path class="cls-13" d="M359,961v58H301V961h58m1-1H300v60h60V960Z"/><path class="cls-13" d="M419,961v58H361V961h58m1-1H360v60h60V960Z"/><path class="cls-13" d="M479,961v58H421V961h58m1-1H420v60h60V960Z"/><path class="cls-13" d="M539,961v58H481V961h58m1-1H480v60h60V960Z"/><path class="cls-13" d="M599,961v58H541V961h58m1-1H540v60h60V960Z"/><path class="cls-13" d="M659,961v58H601V961h58m1-1H600v60h60V960Z"/><path class="cls-13" d="M719,961v58H661V961h58m1-1H660v60h60V960Z"/><path class="cls-13" d="M779,961v58H721V961h58m1-1H720v60h60V960Z"/><path class="cls-13" d="M839,961v58H781V961h58m1-1H780v60h60V960Z"/><path class="cls-13" d="M899,961v58H841V961h58m1-1H840v60h60V960Z"/><path class="cls-13" d="M959,961v58H901V961h58m1-1H900v60h60V960Z"/><path class="cls-13" d="M1019,961v58H961V961h58m1-1H960v60h60V960Z"/><path class="cls-13" d="M1079,961v58h-58V961h58m1-1h-60v60h60V960Z"/><path class="cls-13" d="M1139,961v58h-58V961h58m1-1h-60v60h60V960Z"/><path class="cls-13" d="M1199,961v58h-58V961h58m1-1h-60v60h60V960Z"/><path class="cls-13" d="M1259,961v58h-58V961h58m1-1h-60v60h60V960Z"/><path class="cls-13" d="M1319,961v58h-58V961h58m1-1h-60v60h60V960Z"/><path class="cls-13" d="M1379,961v58h-58V961h58m1-1h-60v60h60V960Z"/><path class="cls-13" d="M1439,961v58h-58V961h58m1-1h-60v60h60V960Z"/><path class="cls-13" d="M1499,961v58h-58V961h58m1-1h-60v60h60V960Z"/><path class="cls-13" d="M1559,961v58h-58V961h58m1-1h-60v60h60V960Z"/><path class="cls-13" d="M1619,961v58h-58V961h58m1-1h-60v60h60V960Z"/><path class="cls-13" d="M1679,961v58h-58V961h58m1-1h-60v60h60V960Z"/><path class="cls-13" d="M1739,961v58h-58V961h58m1-1h-60v60h60V960Z"/><path class="cls-13" d="M1799,961v58h-58V961h58m1-1h-60v60h60V960Z"/><path class="cls-13" d="M1859,961v58h-58V961h58m1-1h-60v60h60V960Z"/><path class="cls-13" d="M1919,961v58h-58V961h58m1-1h-60v60h60V960Z"/><path class="cls-13" d="M59,1021v58H1v-58H59m1-1H0v60H60v-60Z"/><path class="cls-13" d="M119,1021v58H61v-58h58m1-1H60v60h60v-60Z"/><path class="cls-13" d="M179,1021v58H121v-58h58m1-1H120v60h60v-60Z"/><path class="cls-13" d="M239,1021v58H181v-58h58m1-1H180v60h60v-60Z"/><path class="cls-13" d="M299,1021v58H241v-58h58m1-1H240v60h60v-60Z"/><path class="cls-13" d="M359,1021v58H301v-58h58m1-1H300v60h60v-60Z"/><path class="cls-13" d="M419,1021v58H361v-58h58m1-1H360v60h60v-60Z"/><path class="cls-13" d="M479,1021v58H421v-58h58m1-1H420v60h60v-60Z"/><path class="cls-13" d="M539,1021v58H481v-58h58m1-1H480v60h60v-60Z"/><path class="cls-13" d="M599,1021v58H541v-58h58m1-1H540v60h60v-60Z"/><path class="cls-13" d="M659,1021v58H601v-58h58m1-1H600v60h60v-60Z"/><path class="cls-13" d="M719,1021v58H661v-58h58m1-1H660v60h60v-60Z"/><path class="cls-13" d="M779,1021v58H721v-58h58m1-1H720v60h60v-60Z"/><path class="cls-13" d="M839,1021v58H781v-58h58m1-1H780v60h60v-60Z"/><path class="cls-13" d="M899,1021v58H841v-58h58m1-1H840v60h60v-60Z"/><path class="cls-13" d="M959,1021v58H901v-58h58m1-1H900v60h60v-60Z"/><path class="cls-13" d="M1019,1021v58H961v-58h58m1-1H960v60h60v-60Z"/><path class="cls-13" d="M1079,1021v58h-58v-58h58m1-1h-60v60h60v-60Z"/><path class="cls-13" d="M1139,1021v58h-58v-58h58m1-1h-60v60h60v-60Z"/><path class="cls-13" d="M1199,1021v58h-58v-58h58m1-1h-60v60h60v-60Z"/><path class="cls-13" d="M1259,1021v58h-58v-58h58m1-1h-60v60h60v-60Z"/><path class="cls-13" d="M1319,1021v58h-58v-58h58m1-1h-60v60h60v-60Z"/><path class="cls-13" d="M1379,1021v58h-58v-58h58m1-1h-60v60h60v-60Z"/><path class="cls-13" d="M1439,1021v58h-58v-58h58m1-1h-60v60h60v-60Z"/><path class="cls-13" d="M1499,1021v58h-58v-58h58m1-1h-60v60h60v-60Z"/><path class="cls-13" d="M1559,1021v58h-58v-58h58m1-1h-60v60h60v-60Z"/><path class="cls-13" d="M1619,1021v58h-58v-58h58m1-1h-60v60h60v-60Z"/><path class="cls-13" d="M1679,1021v58h-58v-58h58m1-1h-60v60h60v-60Z"/><path class="cls-13" d="M1739,1021v58h-58v-58h58m1-1h-60v60h60v-60Z"/><path class="cls-13" d="M1799,1021v58h-58v-58h58m1-1h-60v60h60v-60Z"/><path class="cls-13" d="M1859,1021v58h-58v-58h58m1-1h-60v60h60v-60Z"/><path class="cls-13" d="M1919,1021v58h-58v-58h58m1-1h-60v60h60v-60Z"/></g></g></svg>